

<svg width="445" height="436" viewBox="0 0 445 436" fill="none" xmlns="http://www.w3.org/2000/svg">
<path d="M723 -286H-277V714H723V-286Z" fill="#F2F4F6" class="svg-elem-1"></path>
<path d="M223 422.3C323.847 422.3 405.6 412.092 405.6 399.5C405.6 386.908 323.847 376.7 223 376.7C122.153 376.7 40.4 386.908 40.4 399.5C40.4 412.092 122.153 422.3 223 422.3Z" fill="#212552" class="svg-elem-2"></path>
<path d="M182.5 383.4V376C182.5 372.7 179.8 370 176.5 370H110.5C107.2 370 104.5 372.7 104.5 376V398C104.5 401.3 107.2 404 110.5 404H154.4C159.2 404 163.8 402.1 167.2 398.7L182.5 383.4Z" fill="#92D6E9" class="svg-elem-3"></path>
<path opacity="0.3" d="M176.5 370H110.5C107.2 370 104.5 372.7 104.5 376V396.4H169.5L182.5 383.4V376C182.5 372.7 179.8 370 176.5 370Z" fill="#0A1E2B" stroke="#0A1E2B" stroke-width="6" stroke-miterlimit="10" stroke-linecap="round" stroke-linejoin="round" class="svg-elem-4"></path>
<path d="M263.5 383.4V376C263.5 372.7 266.2 370 269.5 370H335.5C338.8 370 341.5 372.7 341.5 376V398C341.5 401.3 338.8 404 335.5 404H291.6C286.8 404 282.2 402.1 278.8 398.7L263.5 383.4Z" fill="#92D6E9" class="svg-elem-5"></path>
<path opacity="0.3" d="M335.5 370H269.5C266.2 370 263.5 372.7 263.5 376V383.4L276.5 396.4H341.5V376C341.5 372.7 338.8 370 335.5 370Z" fill="#0A1E2B" stroke="#0A1E2B" stroke-width="6" stroke-miterlimit="10" stroke-linecap="round" stroke-linejoin="round" class="svg-elem-6"></path>
<path d="M182.5 383.4V376C182.5 372.7 179.8 370 176.5 370H110.5C107.2 370 104.5 372.7 104.5 376V398C104.5 401.3 107.2 404 110.5 404H154.4C159.2 404 163.8 402.1 167.2 398.7L182.5 383.4Z" stroke="#212552" stroke-width="6" stroke-miterlimit="10" stroke-linecap="round" stroke-linejoin="round" class="svg-elem-7"></path>
<path d="M263.5 383.4V376C263.5 372.7 266.2 370 269.5 370H335.5C338.8 370 341.5 372.7 341.5 376V398C341.5 401.3 338.8 404 335.5 404H291.6C286.8 404 282.2 402.1 278.8 398.7L263.5 383.4Z" stroke="#212552" stroke-width="6" stroke-miterlimit="10" stroke-linecap="round" stroke-linejoin="round" class="svg-elem-8"></path>
<path d="M353 383.5H93C70.9 383.5 53 365.6 53 343.5V83.5C53 61.4 70.9 43.5 93 43.5H353C375.1 43.5 393 61.4 393 83.5V343.5C393 365.6 375.1 383.5 353 383.5Z" fill="#CBEDF9" class="svg-elem-9"></path>
<path d="M353 43.5H93C70.9 43.5 53 61.4 53 83.5V106.5C53 84.4 70.9 66.5 93 66.5H353C375.1 66.5 393 84.4 393 106.5V83.5C393 61.4 375.1 43.5 353 43.5Z" fill="#E8F9FF" class="svg-elem-10"></path>
<path d="M353 360.5H93C70.9 360.5 53 342.6 53 320.5V343.5C53 365.6 70.9 383.5 93 383.5H353C375.1 383.5 393 365.6 393 343.5V320.5C393 342.6 375.1 360.5 353 360.5Z" fill="#92D6E9" class="svg-elem-11"></path>
<path opacity="0.23" d="M91.7 342.6L128.1 383.5H196.1L240 383.2L231.3 318.1L91.7 342.6Z" fill="#0A1E2B" stroke="#0A1E2B" stroke-width="6" stroke-miterlimit="10" stroke-linecap="round" stroke-linejoin="round" class="svg-elem-12"></path>
<path d="M105 347.5C96.2 347.5 89 340.3 89 331.5V95.5C89 86.7 96.2 79.5 105 79.5H341C349.8 79.5 357 86.7 357 95.5V331.5C357 340.3 349.8 347.5 341 347.5H105Z" fill="#92D6E9" class="svg-elem-13"></path>
<path d="M357 95.5V331.5C357 340.3 349.8 347.5 341 347.5H105C96.2 347.5 89 340.3 89 331.5V95.5C89 86.7 96.2 79.5 105 79.5H232.4C236.9 81.6 240 86.3 240 91.4V101.7H322.6C325.2 101.7 327.6 102.8 329.3 104.5L350 82.3C354.2 85.1 357 90 357 95.5Z" stroke="#212552" stroke-width="6" stroke-miterlimit="10" stroke-linecap="round" stroke-linejoin="round" class="svg-elem-14"></path>
<path opacity="0.23" d="M313.9 305.9L368.5 336.5L379.5 302.3L350 282.1L313.9 305.9Z" fill="#0A1E2B" stroke="#0A1E2B" stroke-width="6" stroke-miterlimit="10" stroke-linecap="round" stroke-linejoin="round" class="svg-elem-15"></path>
<path d="M350 82.3L329.3 104.5C327.6 102.8 325.2 101.7 322.6 101.7H240V91.4C240 86.3 236.8 81.6 232.4 79.5H341C344.3 79.5 347.5 80.5 350 82.3Z" fill="#53ADBC" class="svg-elem-16"></path>
<path d="M350 82.3L329.3 104.5C327.6 102.8 325.2 101.7 322.6 101.7H240V91.4C240 86.3 236.8 81.6 232.4 79.5H341C344.3 79.5 347.5 80.5 350 82.3Z" stroke="#212552" stroke-width="6" stroke-miterlimit="10" stroke-linecap="round" stroke-linejoin="round" class="svg-elem-17"></path>
<path d="M329.3 104.4C331 106.1 332.1 108.5 332.1 111.1V310C332.1 315.8 327.4 320.4 321.7 320.4H240" stroke="#212552" stroke-width="6" stroke-miterlimit="10" stroke-linecap="round" stroke-linejoin="round" class="svg-elem-18"></path>
<path d="M385 276.7L366.9 229.8C365.9 227.1 362.8 225.8 360.1 226.8L315.8 244L271.5 261.1C268.8 262.1 267.5 265.2 268.5 267.9L286.6 314.8C287.6 317.5 290.7 318.8 293.4 317.8L337.7 300.7L382 283.6C384.7 282.4 386.1 279.4 385 276.7Z" fill="#5F9E71" stroke="#212552" stroke-width="6" stroke-miterlimit="10" stroke-linecap="round" stroke-linejoin="round" class="svg-elem-19"></path>
<path d="M385 276.7L366.9 229.8C365.9 227.1 362.8 225.8 360.1 226.8L315.8 244L271.5 261.1C268.8 262.1 267.5 265.2 268.5 267.9L286.6 314.8C287.6 317.5 290.7 318.8 293.4 317.8L337.7 300.7L382 283.6C384.7 282.4 386.1 279.4 385 276.7Z" stroke="#212552" stroke-width="6" stroke-miterlimit="10" stroke-linecap="round" stroke-linejoin="round" class="svg-elem-20"></path>
<path d="M372.3 274.4L367.6 262.3C364.8 263.4 361.7 262 360.6 259.2C359.5 256.4 360.9 253.3 363.7 252.2L359 240.1C358.4 238.7 356.8 237.9 355.4 238.5L320 252.2L319.2 252.5L283.8 266.2C282.4 266.8 281.6 268.4 282.2 269.8L286.9 281.9C289.7 280.8 292.8 282.2 293.9 285C295 287.8 293.6 290.9 290.8 292L295.5 304.1C296.1 305.5 297.7 306.3 299.1 305.7L334.5 292L335.3 291.7L370.7 278C372.1 277.5 372.8 275.9 372.3 274.4Z" fill="#90C49E" class="svg-elem-21"></path>
<path d="M331.474 284.697C338.016 282.168 341.172 274.564 338.524 267.713C335.875 260.862 328.424 257.358 321.882 259.888C315.34 262.417 312.184 270.021 314.833 276.872C317.482 283.723 324.932 287.227 331.474 284.697Z" fill="white" class="svg-elem-22"></path>
<path opacity="0.23" d="M304.9 282.1L340.4 234.5L339 188L304.9 282.1Z" fill="#0A1E2B" stroke="#0A1E2B" stroke-width="6" stroke-miterlimit="10" stroke-linecap="round" stroke-linejoin="round" class="svg-elem-23"></path>
<path d="M282.8 286H266.9L273.1 308.4L276 315.9L282.8 286Z" fill="#A78B75" class="svg-elem-24"></path>
<path d="M261.9 320.5H228.6C222.4 320.5 218.6 315.4 220.1 309.6L225 290C225.8 286.6 229.9 284.1 234.1 284.1H256.6C260.8 284.1 264.8 286.6 265.7 290L270.6 309.6C271.9 315.3 268.1 320.5 261.9 320.5Z" fill="#FDE24F" class="svg-elem-25"></path>
<path d="M270.5 309.6L265.6 290C264.8 286.6 260.7 284.1 256.5 284.1H234C229.8 284.1 225.8 286.6 224.9 290L224.8 290.5C225.7 290.3 226.6 290.2 227.5 290.2H250C254.2 290.2 258.2 292.7 259.1 296.1L264 315.7C264.4 317.3 264.4 318.9 264 320.3C268.9 319.3 271.7 314.7 270.5 309.6Z" fill="#FFE8A6" class="svg-elem-26"></path>
<path d="M261.9 320.5H228.6C222.4 320.5 218.6 315.4 220.1 309.6L225 290C225.8 286.6 229.9 284.1 234.1 284.1H256.6C260.8 284.1 264.8 286.6 265.7 290L270.6 309.6C271.9 315.3 268.1 320.5 261.9 320.5Z" stroke="#212552" stroke-width="6" stroke-miterlimit="10" stroke-linecap="round" stroke-linejoin="round" class="svg-elem-27"></path>
<path d="M236.4 284.1H203.1C196.9 284.1 193.1 279 194.6 273.2L199.5 253.6C200.3 250.2 204.4 247.7 208.6 247.7H231C235.2 247.7 239.2 250.2 240.1 253.6L245 273.2C246.4 278.9 242.6 284.1 236.4 284.1Z" fill="#FFE07D" class="svg-elem-28"></path>
<path d="M236.4 284.1H203.1C196.9 284.1 193.1 279 194.6 273.2L199.5 253.6C200.3 250.2 204.4 247.7 208.6 247.7H231C235.2 247.7 239.2 250.2 240.1 253.6L245 273.2C246.4 278.9 242.6 284.1 236.4 284.1Z" stroke="#212552" stroke-width="6" stroke-miterlimit="10" stroke-linecap="round" stroke-linejoin="round" class="svg-elem-29"></path>
<path d="M335.9 184.9L288.8 167.3C286.1 166.3 283.1 167.7 282.1 170.4L265.5 214.9L248.9 259.4C247.9 262.1 249.3 265.1 252 266.1L299.1 283.7C301.8 284.7 304.8 283.3 305.8 280.6L322.4 236.1L339 191.6C340 188.9 338.6 185.9 335.9 184.9Z" fill="#5F9E71" stroke="#212552" stroke-width="6" stroke-miterlimit="10" stroke-linecap="round" stroke-linejoin="round" class="svg-elem-30"></path>
<path d="M325.7 192.9L313.6 188.4C312.6 191.2 309.4 192.6 306.6 191.6C303.8 190.6 302.4 187.4 303.4 184.6L291.3 180.1C289.8 179.6 288.2 180.3 287.7 181.7L274.4 217.3L274.1 218.1L260.8 253.7C260.3 255.2 261 256.8 262.4 257.3L274.5 261.8C275.5 259 278.7 257.6 281.5 258.6C284.3 259.6 285.7 262.8 284.7 265.6L296.8 270.1C298.3 270.6 299.9 269.9 300.4 268.5L313.7 232.9L314 232.1L327.3 196.5C327.9 195.1 327.2 193.5 325.7 192.9Z" fill="#90C49E" class="svg-elem-31"></path>
<path d="M306.309 230.097C308.761 223.525 305.171 216.116 298.289 213.547C291.407 210.978 283.84 214.223 281.387 220.795C278.934 227.366 282.525 234.776 289.407 237.344C296.289 239.913 303.856 236.668 306.309 230.097Z" fill="white" class="svg-elem-32"></path>
<path d="M335.9 184.9L288.8 167.3C286.1 166.3 283.1 167.7 282.1 170.4L265.5 214.9L248.9 259.4C247.9 262.1 249.3 265.1 252 266.1L299.1 283.7C301.8 284.7 304.8 283.3 305.8 280.6L322.4 236.1L339 191.6C340 188.9 338.6 185.9 335.9 184.9Z" stroke="#212552" stroke-width="6" stroke-miterlimit="10" stroke-linecap="round" stroke-linejoin="round" class="svg-elem-33"></path>
<path d="M260.8 250.6L241.3 249.7L247 269.5L254 280.5L260.8 250.6Z" fill="#A78B75" class="svg-elem-34"></path>
<path d="M290.9 284.1H257.6C251.4 284.1 247.6 279 249.1 273.2L254 253.6C254.8 250.2 258.9 247.7 263.1 247.7H285.6C289.8 247.7 293.8 250.2 294.7 253.6L299.6 273.2C300.9 278.9 297.1 284.1 290.9 284.1Z" fill="#FDE24F" class="svg-elem-35"></path>
<path d="M299.4 273.2L294.5 253.6C293.7 250.2 289.6 247.7 285.4 247.7H263C258.8 247.7 254.8 250.2 253.9 253.6L253.6 254.8C254.8 254.4 256 254.1 257.3 254.1H279.8C284 254.1 288 256.6 288.9 260L293.8 279.6C294.1 281 294.2 282.3 294 283.6C298.3 282.2 300.6 277.9 299.4 273.2Z" fill="#FFE8A6" class="svg-elem-36"></path>
<path d="M290.9 284.1H257.6C251.4 284.1 247.6 279 249.1 273.2L254 253.6C254.8 250.2 258.9 247.7 263.1 247.7H285.6C289.8 247.7 293.8 250.2 294.7 253.6L299.6 273.2C300.9 278.9 297.1 284.1 290.9 284.1Z" stroke="#212552" stroke-width="6" stroke-miterlimit="10" stroke-linecap="round" stroke-linejoin="round" class="svg-elem-37"></path>
<path d="M265.2 247.7H231.9C225.7 247.7 221.9 242.6 223.4 236.8L228.3 217.2C229.1 213.8 233.2 211.3 237.4 211.3H259.9C264.1 211.3 268.1 213.8 269 217.2L273.9 236.8C275.1 242.5 271.4 247.7 265.2 247.7Z" fill="#FDE24F" class="svg-elem-38"></path>
<path d="M273.7 236.8L268.8 217.2C268 213.8 263.9 211.3 259.7 211.3H237.2C233 211.3 229 213.8 228.1 217.2V217.4C229.1 217.1 230.2 216.9 231.3 216.9H253.8C258 216.9 262 219.4 262.9 222.8L267.8 242.4C268.2 244.1 268.2 245.8 267.7 247.3C272.4 246.1 274.9 241.7 273.7 236.8Z" fill="#FFE8A6" class="svg-elem-39"></path>
<path d="M265.2 247.7H231.9C225.7 247.7 221.9 242.6 223.4 236.8L228.3 217.2C229.1 213.8 233.2 211.3 237.4 211.3H259.9C264.1 211.3 268.1 213.8 269 217.2L273.9 236.8C275.1 242.5 271.4 247.7 265.2 247.7Z" stroke="#212552" stroke-width="6" stroke-miterlimit="10" stroke-linecap="round" stroke-linejoin="round" class="svg-elem-40"></path>
<path opacity="0.23" d="M341 79.5H178.8L183.5 225.1H271.4L339 188L357 121.2V95.5C357 86.6 349.8 79.5 341 79.5Z" fill="#0A1E2B" stroke="#0A1E2B" stroke-width="6" stroke-miterlimit="10" stroke-linecap="round" stroke-linejoin="round" class="svg-elem-41"></path>
<path d="M317.9 320.5H284.6C278.4 320.5 274.6 315.4 276.1 309.6L281 290C281.8 286.6 285.9 284.1 290.1 284.1H312.6C316.8 284.1 320.8 286.6 321.7 290L326.6 309.6C327.9 315.3 324.1 320.5 317.9 320.5Z" fill="#FFE07D" class="svg-elem-42"></path>
<path d="M326.4 309.6L321.5 290C320.7 286.6 316.6 284.1 312.4 284.1H290C285.8 284.1 281.8 286.6 280.9 290L280.5 291.7C281.6 291.3 282.8 291.1 284 291.1H306.5C310.7 291.1 314.7 293.6 315.6 297L320.5 316.6C320.8 317.8 320.9 319 320.7 320.1C325.2 318.8 327.6 314.4 326.4 309.6Z" fill="#FFE8A6" class="svg-elem-43"></path>
<path d="M317.9 320.5H284.6C278.4 320.5 274.6 315.4 276.1 309.6L281 290C281.8 286.6 285.9 284.1 290.1 284.1H312.6C316.8 284.1 320.8 286.6 321.7 290L326.6 309.6C327.9 315.3 324.1 320.5 317.9 320.5Z" stroke="#212552" stroke-width="6" stroke-miterlimit="10" stroke-linecap="round" stroke-linejoin="round" class="svg-elem-44"></path>
<path d="M101.9 334.5V92.3C101.9 83.2 107 74.9 113.3 73.6L194.2 57.4C202.3 55.8 208.9 63 208.9 73.4V353.4C208.9 363.9 202.2 371 194.2 369.4L113.3 353.2C107 352 101.9 343.6 101.9 334.5Z" fill="#92D6E9" class="svg-elem-45"></path>
<path d="M101.9 334.5V92.3C101.9 83.2 107 74.9 113.3 73.6L194.2 57.4C202.3 55.8 208.9 63 208.9 73.4V353.4C208.9 363.9 202.2 371 194.2 369.4L113.3 353.2C107 352 101.9 343.6 101.9 334.5Z" stroke="#212552" stroke-width="6" stroke-miterlimit="10" stroke-linecap="round" stroke-linejoin="round" class="svg-elem-46"></path>
<path d="M89 331.5V95.5C89 86.7 93.9 78.3 100.1 76.9L181 58C189.2 56.1 196.1 63 196.1 73.5V353.5C196.1 364 189.3 370.9 181 369L100.2 350.1C93.9 348.6 89 340.3 89 331.5Z" fill="#CBEDF9" class="svg-elem-47"></path>
<path d="M181 352.9L100.2 334C94 332.5 89.1 324.2 89.1 315.4V331.4C89.1 340.2 94 348.6 100.2 350L181 368.9C189.2 370.8 196.1 363.9 196.1 353.4V337.4C196.1 348 189.2 354.9 181 352.9Z" fill="#92D6E9" class="svg-elem-48"></path>
<path d="M181 58L100.2 76.9C94 78.4 89.1 86.7 89.1 95.5V107.5C89.1 98.7 94 90.3 100.2 88.9L181 70C189.2 68.1 196.1 75 196.1 85.5V73.5C196.1 63 189.2 56.1 181 58Z" fill="#E8F9FF" class="svg-elem-49"></path>
<path d="M183.5 142.4C186.096 142.4 188.2 137.654 188.2 131.8C188.2 125.946 186.096 121.2 183.5 121.2C180.904 121.2 178.8 125.946 178.8 131.8C178.8 137.654 180.904 142.4 183.5 142.4Z" fill="#212552" class="svg-elem-50"></path>
<path d="M89 331.5V95.5C89 86.7 93.9 78.3 100.1 76.9L181 58C189.2 56.1 196.1 63 196.1 73.5V353.5C196.1 364 189.3 370.9 181 369L100.2 350.1C93.9 348.6 89 340.3 89 331.5Z" stroke="#212552" stroke-width="6" stroke-miterlimit="10" stroke-linecap="round" stroke-linejoin="round" class="svg-elem-51"></path>
<path d="M138.6 275.2C154.009 275.2 166.5 250.755 166.5 220.6C166.5 190.445 154.009 166 138.6 166C123.191 166 110.7 190.445 110.7 220.6C110.7 250.755 123.191 275.2 138.6 275.2Z" fill="#9FBDCA" stroke="#9FBDCA" stroke-width="6" stroke-miterlimit="10" stroke-linecap="round" stroke-linejoin="round" class="svg-elem-52"></path>
<path d="M137.6 280.1C142.35 280.1 146.2 276.608 146.2 272.3C146.2 267.992 142.35 264.5 137.6 264.5C132.85 264.5 129 267.992 129 272.3C129 276.608 132.85 280.1 137.6 280.1Z" fill="#9FBDCA" stroke="#9FBDCA" stroke-width="6" stroke-miterlimit="10" stroke-linecap="round" stroke-linejoin="round" class="svg-elem-53"></path>
<path d="M139.8 269.5C156.258 269.5 169.6 244.652 169.6 214C169.6 183.348 156.258 158.5 139.8 158.5C123.342 158.5 110 183.348 110 214C110 244.652 123.342 269.5 139.8 269.5Z" fill="#CBEDF9" class="svg-elem-54"></path>
<path d="M137.6 260C150.523 260 161 239.405 161 214C161 188.595 150.523 168 137.6 168C124.677 168 114.2 188.595 114.2 214C114.2 239.405 124.677 260 137.6 260Z" fill="#92D6E9" class="svg-elem-55"></path>
<g opacity="0.23">
<path d="M111.7 214L155.5 215.7L142.5 269.3L128.1 265.1L110 214" fill="#0A1E2B" class="svg-elem-56"></path>
<path d="M111.7 214L155.5 215.7L142.5 269.3L128.1 265.1L110 214" stroke="#0A1E2B" stroke-width="6" stroke-miterlimit="10" stroke-linecap="round" stroke-linejoin="round" class="svg-elem-57"></path>
</g>
<path d="M139.8 269.5C156.258 269.5 169.6 244.652 169.6 214C169.6 183.348 156.258 158.5 139.8 158.5C123.342 158.5 110 183.348 110 214C110 244.652 123.342 269.5 139.8 269.5Z" stroke="#212552" stroke-width="6" stroke-miterlimit="10" stroke-linecap="round" stroke-linejoin="round" class="svg-elem-58"></path>
<path opacity="0.23" d="M89 176C84.6 176 81 172.4 81 168V144C81 139.6 84.6 136 89 136C93.4 136 97 139.6 97 144V168C97 172.4 93.4 176 89 176Z" fill="#0A1E2B" stroke="#0A1E2B" stroke-width="6" stroke-miterlimit="10" stroke-linecap="round" stroke-linejoin="round" class="svg-elem-59"></path>
<path opacity="0.23" d="M89 306.5C84.6 306.5 81 302.9 81 298.5V274.5C81 270.1 84.6 266.5 89 266.5C93.4 266.5 97 270.1 97 274.5V298.5C97 302.9 93.4 306.5 89 306.5Z" fill="#0A1E2B" stroke="#0A1E2B" stroke-width="6" stroke-miterlimit="10" stroke-linecap="round" stroke-linejoin="round" class="svg-elem-60"></path>
<path d="M89 168C84.6 168 81 164.4 81 160V136C81 131.6 84.6 128 89 128C93.4 128 97 131.6 97 136V160C97 164.4 93.4 168 89 168Z" fill="#92D6E9" class="svg-elem-61"></path>
<path d="M89 299C84.6 299 81 295.4 81 291V267C81 262.6 84.6 259 89 259C93.4 259 97 262.6 97 267V291C97 295.4 93.4 299 89 299Z" fill="#92D6E9" class="svg-elem-62"></path>
<path d="M89 168C84.6 168 81 164.4 81 160V136C81 131.6 84.6 128 89 128C93.4 128 97 131.6 97 136V160C97 164.4 93.4 168 89 168Z" stroke="#212552" stroke-width="6" stroke-miterlimit="10" stroke-linecap="round" stroke-linejoin="round" class="svg-elem-63"></path>
<path d="M89 299C84.6 299 81 295.4 81 291V267C81 262.6 84.6 259 89 259C93.4 259 97 262.6 97 267V291C97 295.4 93.4 299 89 299Z" stroke="#212552" stroke-width="6" stroke-miterlimit="10" stroke-linecap="round" stroke-linejoin="round" class="svg-elem-64"></path>
<path d="M421 61.3L400.8 58.5" stroke="#212552" stroke-width="6" stroke-miterlimit="10" stroke-linecap="round" stroke-linejoin="round" class="svg-elem-65"></path>
<path d="M372.9 29.6L369.9 9.39999" stroke="#212552" stroke-width="6" stroke-miterlimit="10" stroke-linecap="round" stroke-linejoin="round" class="svg-elem-66"></path>
<path d="M392.9 36.9L407.4 22.4" stroke="#212552" stroke-width="6" stroke-miterlimit="10" stroke-linecap="round" stroke-linejoin="round" class="svg-elem-67"></path>
<path d="M134.4 193.5H118.7V234.6H134.4C141.3 234.6 146.8 225.4 146.8 214.1C146.8 202.8 141.2 193.5 134.4 193.5Z" fill="#3CA4B5" class="svg-elem-68"></path>
<path d="M134.4 193.5H118.7V234.6H134.4C141.3 234.6 146.8 225.4 146.8 214.1C146.8 202.8 141.2 193.5 134.4 193.5Z" stroke="#212552" stroke-width="6" stroke-miterlimit="10" stroke-linecap="round" stroke-linejoin="round" class="svg-elem-69"></path>
<path d="M134.4 234.5C141.248 234.5 146.8 225.322 146.8 214C146.8 202.678 141.248 193.5 134.4 193.5C127.552 193.5 122 202.678 122 214C122 225.322 127.552 234.5 134.4 234.5Z" stroke="#212552" stroke-width="10" stroke-miterlimit="10" stroke-linecap="round" stroke-linejoin="round" class="svg-elem-70"></path>
<path d="M154 214H133.5" stroke="#212552" stroke-width="9" stroke-miterlimit="10" stroke-linecap="round" stroke-linejoin="round" class="svg-elem-71"></path>
<path d="M121.9 193.5H134.4V177.4L121.9 193.5Z" stroke="#212552" stroke-width="6" stroke-miterlimit="10" stroke-linecap="round" stroke-linejoin="round" class="svg-elem-72"></path>
<path d="M121.9 193.5H134.4V177.4L121.9 193.5Z" fill="#212552" class="svg-elem-73"></path>
<path d="M121.9 234.5H134.4V250.6L121.9 234.5Z" fill="#212552" class="svg-elem-74"></path>
<path d="M121.9 234.5H134.4V250.6L121.9 234.5Z" stroke="#212552" stroke-width="6" stroke-miterlimit="10" stroke-linecap="round" stroke-linejoin="round" class="svg-elem-75"></path>
<path d="M118.7 234.5C125.548 234.5 131.1 225.322 131.1 214C131.1 202.678 125.548 193.5 118.7 193.5C111.852 193.5 106.3 202.678 106.3 214C106.3 225.322 111.852 234.5 118.7 234.5Z" fill="#FFEA9E" class="svg-elem-76"></path>
<path d="M117.7 224C121.069 224 123.8 219.523 123.8 214C123.8 208.477 121.069 204 117.7 204C114.331 204 111.6 208.477 111.6 214C111.6 219.523 114.331 224 117.7 224Z" fill="#FDE24F" class="svg-elem-77"></path>
<path d="M118.7 234.5C125.548 234.5 131.1 225.322 131.1 214C131.1 202.678 125.548 193.5 118.7 193.5C111.852 193.5 106.3 202.678 106.3 214C106.3 225.322 111.852 234.5 118.7 234.5Z" stroke="#212552" stroke-width="6" stroke-miterlimit="10" stroke-linecap="round" stroke-linejoin="round" class="svg-elem-78"></path>
<path d="M228.3 348.6L208 350.6V76.3L228.3 78.3C234.8 78.9 240 84.8 240 91.3V335.5C240 342.1 234.8 348 228.3 348.6Z" fill="#CBEDF9" class="svg-elem-79"></path>
<path opacity="0.23" d="M240.6 180.6V152H218.3V182.3H218.4C218.4 188.5 223.4 193.5 229.6 193.5C235.8 193.5 240.8 188.5 240.8 182.3C240.8 181.7 240.7 181.2 240.6 180.6Z" fill="#0A1E2B" stroke="#0A1E2B" stroke-width="6" stroke-miterlimit="10" stroke-linecap="round" stroke-linejoin="round" class="svg-elem-80"></path>
<path d="M240 91.3V335.5C240 340.6 236.9 345.3 232.6 347.4C231.4 348 230 348.4 228.6 348.5L209 350.5V76.3L228.6 78.3C230 78.4 231.3 78.8 232.6 79.4C236.9 81.6 240 86.2 240 91.3Z" stroke="#212552" stroke-width="6" stroke-miterlimit="10" stroke-linecap="round" stroke-linejoin="round" class="svg-elem-81"></path>
<path d="M328.3 318.1L352.5 342.6" stroke="#212552" stroke-width="6" stroke-miterlimit="10" stroke-linecap="round" stroke-linejoin="round" class="svg-elem-82"></path>
<path d="M229.9 138.8C223.7 138.8 218.7 143.8 218.7 150C218.7 156.2 223.7 161.2 229.9 161.2H240.8V138.9H229.9V138.8Z" fill="#92D6E9" class="svg-elem-83"></path>
<path d="M229.9 138.8C223.7 138.8 218.7 143.8 218.7 150C218.7 156.2 223.7 161.2 229.9 161.2H240.8V138.9H229.9V138.8Z" stroke="#212552" stroke-width="6" stroke-miterlimit="10" stroke-linecap="round" stroke-linejoin="round" class="svg-elem-84"></path>
<path d="M240.8 161.2C246.986 161.2 252 156.186 252 150C252 143.814 246.986 138.8 240.8 138.8C234.614 138.8 229.6 143.814 229.6 150C229.6 156.186 234.614 161.2 240.8 161.2Z" fill="#CBEDF9" class="svg-elem-85"></path>
<path d="M240.8 161.2C246.986 161.2 252 156.186 252 150C252 143.814 246.986 138.8 240.8 138.8C234.614 138.8 229.6 143.814 229.6 150C229.6 156.186 234.614 161.2 240.8 161.2Z" stroke="#212552" stroke-width="6" stroke-miterlimit="10" stroke-linecap="round" stroke-linejoin="round" class="svg-elem-86"></path>
<path d="M240.8 161.2C246.986 161.2 252 156.186 252 150C252 143.814 246.986 138.8 240.8 138.8C234.614 138.8 229.6 143.814 229.6 150C229.6 156.186 234.614 161.2 240.8 161.2Z" stroke="#212552" stroke-width="6" stroke-miterlimit="10" stroke-linecap="round" stroke-linejoin="round" class="svg-elem-87"></path>
<path opacity="0.23" d="M240.6 308.3V279.7H218.3V310H218.4C218.4 316.2 223.4 321.2 229.6 321.2C235.8 321.2 240.8 316.2 240.8 310C240.8 309.4 240.7 308.8 240.6 308.3Z" fill="#0A1E2B" stroke="#0A1E2B" stroke-width="6" stroke-miterlimit="10" stroke-linecap="round" stroke-linejoin="round" class="svg-elem-88"></path>
<path d="M229.9 266.5C223.7 266.5 218.7 271.5 218.7 277.7C218.7 283.9 223.7 288.9 229.9 288.9H240.8V266.6H229.9V266.5Z" fill="#92D6E9" class="svg-elem-89"></path>
<path d="M229.9 266.5C223.7 266.5 218.7 271.5 218.7 277.7C218.7 283.9 223.7 288.9 229.9 288.9H240.8V266.6H229.9V266.5Z" stroke="#212552" stroke-width="6" stroke-miterlimit="10" stroke-linecap="round" stroke-linejoin="round" class="svg-elem-90"></path>
<path d="M240.8 288.8C246.986 288.8 252 283.786 252 277.6C252 271.414 246.986 266.4 240.8 266.4C234.614 266.4 229.6 271.414 229.6 277.6C229.6 283.786 234.614 288.8 240.8 288.8Z" fill="#CBEDF9" class="svg-elem-91"></path>
<path d="M240.8 288.8C246.986 288.8 252 283.786 252 277.6C252 271.414 246.986 266.4 240.8 266.4C234.614 266.4 229.6 271.414 229.6 277.6C229.6 283.786 234.614 288.8 240.8 288.8Z" stroke="#212552" stroke-width="6" stroke-miterlimit="10" stroke-linecap="round" stroke-linejoin="round" class="svg-elem-92"></path>
<path d="M174 286.3C171.8 286.3 170 284.5 170 282.3V140.3C170 138.1 171.8 136.3 174 136.3H182.2V127.3H173C166.4 127.3 161 132.7 161 139.3V283.3C161 289.9 166.4 295.3 173 295.3H182.2V286.3H174Z" fill="#92D6E9" class="svg-elem-93"></path>
<path d="M183.5 300.7C186.096 300.7 188.2 295.954 188.2 290.1C188.2 284.246 186.096 279.5 183.5 279.5C180.904 279.5 178.8 284.246 178.8 290.1C178.8 295.954 180.904 300.7 183.5 300.7Z" fill="#212552" class="svg-elem-94"></path>
<path d="M174 286.3C171.8 286.3 170 284.5 170 282.3V140.3C170 138.1 171.8 136.3 174 136.3H182.2V127.3H173C166.4 127.3 161 132.7 161 139.3V283.3C161 289.9 166.4 295.3 173 295.3H182.2V286.3H174Z" stroke="#212552" stroke-width="6" stroke-miterlimit="10" stroke-linecap="round" stroke-linejoin="round" class="svg-elem-95"></path>
<path d="M353 383.5H93C70.9 383.5 53 365.6 53 343.5V83.5C53 61.4 70.9 43.5 93 43.5H353C375.1 43.5 393 61.4 393 83.5V343.5C393 365.6 375.1 383.5 353 383.5Z" stroke="#212552" stroke-width="6" stroke-miterlimit="10" stroke-linecap="round" stroke-linejoin="round" class="svg-elem-96"></path>
<path opacity="0.23" d="M182.5 140.5L183.5 318.1" stroke="#0A1E2B" stroke-width="8" stroke-miterlimit="10" stroke-linecap="round" stroke-linejoin="round" class="svg-elem-97"></path>
<path d="M181.6 57.7L197.1 57.2" stroke="#212552" stroke-width="6" stroke-miterlimit="10" stroke-linecap="round" stroke-linejoin="round" class="svg-elem-98"></path>
<path d="M183 369.2L197.3 369.6" stroke="#212552" stroke-width="6" stroke-miterlimit="10" stroke-linecap="round" stroke-linejoin="round" class="svg-elem-99"></path>
</svg>
