<svg width="463" height="402" viewBox="0 0 463 702" fill="none" xmlns="http://www.w3.org/2000/svg">
<path fill-rule="evenodd" clip-rule="evenodd" d="M48.9687 345.916C48.7469 347.014 48.4125 348.203 48.0644 349.268C49.799 350.934 52.2541 353.168 54.0158 354.781C52.2731 344.039 57.5753 334.124 60.8206 323.963C59.5966 322.396 55.3337 320.793 55.471 319.056C55.7999 312.622 56.2853 305.441 56.9852 297.386C59.3546 272.231 61.7122 245.999 56.1198 220.768C55.7377 218.025 55.1579 215.141 51.4721 215.077C40.5858 258.317 49.4071 301.852 49.167 345.364L49.4838 345.647L48.9687 345.916ZM32.6667 700.194C23.7217 700.194 15.4989 698.574 7.53823 695.289C5.24099 694.482 2.38732 693.48 1.98928 691.857C1.33476 687.416 1.78789 683.05 2.26738 678.429C3.02569 670.502 2.95017 664.34 5.09374 655.804C7.38789 647.877 9.34314 641.682 7.10433 633.485C6.92478 631.045 8.83705 628.563 10.1003 626.28C11.8886 622.949 12.796 619.482 14.2164 616.066C11.4259 615.579 8.52832 614.911 5.8492 614.084L5.39939 615.7C5.3006 616.055 5.0282 616.235 4.59027 616.235C4.31929 616.235 3.62606 616.105 3.52489 615.527C3.94525 609.286 4.55417 603.075 5.19373 596.734C11.8344 535.649 21.8899 485.294 38.7764 435.073C42.8322 423.311 46.9752 411.067 47.0047 398.288C44.6989 397.795 42.1309 397.512 39.7807 397.836C23.0356 393.964 26.3457 358.613 27.0119 348.034C25.8308 347.68 24.5092 347.179 23.5293 346.508L23.133 346.701C6.50538 305.518 13.3337 237.428 17.1371 191.652C19.6326 175.198 16.1225 145.476 30.7412 137.346C42.5444 133.174 54.2954 130.83 66.6294 128.079C68.9136 126.77 71.7326 126.023 74.2813 125.176L72.9646 123.329C71.2379 120.901 71.4675 116.139 73.7263 114.465C75.1144 114.542 77.0649 115.933 78.3915 116.587C80.2998 112.649 82.0662 108.53 83.3339 103.799L83.7897 103.962C85.1236 90.5787 102.512 88.243 112.316 92.7151C123.018 98.5783 117.444 111.842 122.31 121.417L124.074 119.07C126.797 119.02 132.558 122.583 133.945 123.921C134.938 124.383 134.22 127.492 134.365 128.743C148.722 131.987 168.375 132.878 172.938 148.96C180.531 179.201 179.463 210.203 188.078 240.336C197.097 264.762 210.343 294.651 210.454 317.02C210.712 321.213 211.277 344.925 207.8 343.971L205.505 346.257C208.631 351.237 206.149 358.691 204.951 364.588C202 377.1 196.234 390.583 183.916 384.586C170.668 457.588 137.372 531.23 148.73 606.526C148.866 606.967 148.591 607.45 148.118 607.257L147.558 607C146.114 607.445 144.281 607.601 142.772 607.939C144.056 612.74 144.744 617.48 145.411 622.79C146.219 623.271 145.842 624.544 145.883 625.313C157.936 624.737 164.696 637.332 173.34 644.259C179.047 649.34 185.547 654.178 192.66 658.639C198.538 661.972 203.497 665.788 202.604 672.084C202.689 672.073 204.503 671.793 204.591 671.785C207.326 680.865 198.348 682.742 189.102 683.836C166.508 686.103 147.193 681.093 121.035 671.6C117.826 671.979 115.326 667.219 114.899 663.991C114.477 661.828 115.678 659.629 114.761 657.301C111.607 650.612 109.965 632.905 114.412 624.962C115.973 623.161 117.975 621.499 117.715 618.392C117.643 615.279 117.349 612.168 117.613 609.11C112.268 608.595 106.976 607.445 102.313 605.581C101.488 605.898 100.55 605.508 100.492 604.476C99.5974 590.243 98.5264 574.69 98.2948 560.119C97.2202 528.407 104.487 497.462 110.049 466.706C110.435 456.84 112.26 447.308 112.835 437.437C113.454 428.075 113.563 418.91 114.101 409.562L110.892 408.867C84.2466 477.422 63.3805 546.032 48.7759 613.167C49.1062 613.449 50.045 613.767 50.0051 614.339C49.9942 614.645 50.0016 614.664 49.7921 614.695C46.2637 615.403 42.7719 615.922 39.2751 616.326C40.2609 624.704 35.002 634.386 39.6563 642.233C40.8924 644.124 40.9456 644.519 40.1883 645.819C46.9691 658.415 51.1714 668.895 53.895 680.155L55.6498 678.674C58.1938 680.518 58.2465 684.001 58.3021 687.682C58.1211 689.827 59.1703 692.074 57.563 693.879C53.6936 698.392 40.208 700.168 32.6667 700.194Z" fill="#FFFFFE"/>
<path fill-rule="evenodd" clip-rule="evenodd" d="M82.2254 101.782C84.0749 103.277 82.1458 114.063 80.6553 116.263C90.7354 122.743 100.921 129.073 111.319 135.007L112.396 135.62L112.363 135.61C112.795 135.804 113.525 135.975 113.954 135.89L114.248 135.793C114.308 135.774 114.343 135.765 114.327 135.779C114.5 135.686 114.669 135.589 114.832 135.478C117.797 132.778 119.957 128.203 122.28 124.644C118.326 121.162 120.296 114.376 120.456 109.741C121.204 109.722 121.292 112.09 121.506 112.777L121.626 113.432C121.911 114.966 122.236 116.529 122.824 117.955C124.534 115.793 133.193 120.902 134.815 122.547C136.581 123.671 136.04 125.671 136.016 127.429C152.448 130.62 173.4 132.865 175.608 153.455C178.206 164.5 179.594 175.742 180.878 186.999L181.087 188.796C183.331 208.166 185.323 227.776 191.66 246.323L194.081 252.087C199.319 264.588 204.429 277.191 207.774 290.345C210.367 295.958 217.272 349.53 206.886 345.397C210.437 351.182 207.779 358.794 206.546 364.979C203.99 375.13 198.889 391.719 185.165 386.827C174.816 442.042 154.318 495.238 149.136 551.414C147.453 569.672 147.488 588.15 150.346 606.296C150.732 608.02 149.081 609.543 147.395 608.787C146.547 609.029 145.651 609.101 144.782 609.265C145.783 613.283 146.369 617.478 146.901 621.585L146.96 622.041L146.962 622.043C147.378 622.503 147.582 623.086 147.563 623.744C153.833 623.767 159.079 627.808 163.257 632.101C170.501 639.67 178.149 646.885 186.818 652.825C193.023 657.861 203.91 660.813 204.259 670.175C207.427 669.64 206.669 676.55 206.107 678.375C205.449 680.421 203.537 681.599 201.703 682.51C175.336 691.332 146.294 682.74 121.226 673.268C116.832 673.848 113.692 668.043 113.222 664.216C112.744 662.104 113.868 660.051 113.213 657.992L112.997 657.427C112.208 655.358 111.462 653.335 111.013 651.143L110.947 650.686C109.878 643.113 109.018 630.288 113.082 623.953C117.822 619.896 115.369 616.009 115.844 610.605C111.163 610.071 106.535 609.014 102.155 607.331C100.429 607.699 98.922 606.302 98.808 604.631L98.6392 601.957C97.7556 588.042 96.8354 574.113 96.6056 560.169C95.5243 528.531 102.706 497.569 108.36 466.666C108.917 454.753 111.195 442.989 111.515 431.046C111.755 423.85 112.053 416.673 112.415 409.49C86.77 475.46 65.723 543.271 50.6177 612.425C52.007 613.366 52.159 615.932 50.0905 616.345C47.0648 616.947 44.0179 617.44 40.959 617.812C41.4485 625.238 37.0238 635.282 41.1229 641.577L41.2864 641.829C42.0643 643.035 42.8254 644.413 42.0301 645.815C47.3572 655.796 51.9749 666.211 54.8165 677.205C58.0625 675.875 59.9121 682.461 59.8161 684.841C59.6076 687.96 61.2919 693.218 58.5976 695.351C44.4458 704.457 25.2346 703.045 9.80964 698.002C6.94861 696.778 3.66983 695.944 1.21751 693.987C0.10606 692.861 0.182055 691.01 0.0915714 689.548L0.0638767 688.791C-0.0815846 684.582 -0.0673934 680.293 1.08689 676.147C0.778158 670.141 1.67586 664.055 2.85856 658.18C3.61592 653.437 5.79678 648.931 6.09032 644.144C7.63851 639.861 4.84635 635.856 5.59681 631.575C6.2092 628.966 8.12892 626.712 9.24029 624.283L9.31827 624.109C10.324 621.9 11.0446 619.611 11.9164 617.345C10.2469 617.027 8.59868 616.636 6.97425 616.167C6.19719 618.978 1.69961 618.184 1.83261 615.319C5.52652 569.108 12.8671 523.154 24.2295 478.197C29.5305 451.608 43.2204 426.817 45.2837 399.682C43.6411 399.375 41.77 399.296 40.1605 399.481L39.9687 399.505C38.9403 399.632 37.9524 399.813 36.8497 399.294C22.7025 390.572 24.1566 363.847 25.2301 349.221C24.5912 349.007 23.9809 348.744 23.4251 348.415C22.9335 348.78 22.1878 348.801 21.9005 348.128C21.1761 346.429 20.2452 344.77 19.6153 343.042C3.22311 286.779 13.6905 227.488 16.9908 170.135C18.2769 158.353 18.2866 142.355 30.0131 135.862C33.9483 134.001 38.3894 133.202 42.5834 132.129C52.2081 129.264 62.2611 127.98 71.5832 124.314C69.4142 121.307 69.9301 116.92 71.7374 113.895C73.1706 111.718 75.9219 113.384 77.6226 114.31C79.5854 110.306 80.932 106.037 82.2254 101.782ZM55.4102 679.774L55.4969 680.177C55.9562 682.332 56.3529 684.596 56.1227 686.789C62.2195 692.721 34.1248 693.472 31.0246 693.459C23.9305 693.386 3.07325 691.026 2.0416 682.49L2.05344 682.694C2.19146 685.409 1.7302 690.48 3.21005 692.487C14.3944 698.295 27.4078 700.592 39.9261 699.161L40.3759 699.101C45.3663 698.417 54.8437 696.402 57.3059 692.25C56.7615 688.384 58.0981 682.846 55.4102 679.774ZM35.1785 641.425C28.3314 633.986 17.0847 639.424 9.8645 643.573C9.59186 646.831 7.30389 648.029 7.21127 651.446C5.67281 661.884 2.12805 673.684 6.64415 683.763C20.1069 690.956 36.1168 690.469 50.6818 687.372C51.0632 686.877 51.5448 686.728 52.2326 686.54C52.6658 683.482 51.7902 680.408 51.2114 677.439C49.7551 671.199 47.8711 665.073 46.1956 658.891C43.1931 656.955 42.0956 652.889 40.5291 649.823C40.104 648.962 39.6694 648.102 39.2134 647.249C36.769 646.449 36.1292 643.536 35.1785 641.425ZM115.443 661.946C114.707 669.448 122.038 672.439 127.966 674.24C134.637 676.607 141.472 678.572 148.345 680.271C162.425 683.892 177.104 685.478 191.537 683.208L191.788 683.164C195.952 682.432 203.412 681.553 204.359 676.74L204.369 676.63C204.433 675.842 204.556 672.873 204.259 672.113C204.15 672.111 204.043 672.088 203.941 672.038C202.734 675.889 198.338 678.231 194.102 678.835C192.103 680.838 188.422 680.095 185.759 680.21C168.176 680.036 151.273 674.602 134.612 669.552C129.311 667.713 118.744 666.395 115.443 661.946ZM116.953 623.327C113.902 622.254 113.322 630.786 112.932 632.869C111.949 641.679 111.971 655.416 119.117 661.664C126.572 664.851 134.618 666.314 142.308 668.822L144.127 669.355C158.704 673.615 173.683 677.598 188.981 676.97C190.136 674.665 197.461 676.581 200.255 672.474C204.003 665.953 194.54 661.752 190.062 658.974C181.463 653.464 173.43 647.057 166.187 639.861C162.782 636.479 159.666 632.606 155.666 629.888L155.458 629.748C152.031 627.48 147.633 626.074 143.609 627.563C139.69 629.011 138.251 633.479 134.965 635.787C127.64 640.526 120.14 633.036 117.76 626.258L117.689 626.053C117.604 625.842 117.837 625.714 118.012 625.771C117.996 625.705 117.984 625.636 117.97 625.569C117.046 625.328 116.958 624.18 116.953 623.327ZM12.7809 617.504C13.7377 622.902 11.042 627.745 9.03044 632.521C8.48896 635.687 10.4791 638.721 10.0189 641.942C16.6035 636.782 26.569 632.207 34.5135 636.92C34.5563 632.369 36.1254 627.952 37.4893 623.65L38.0429 621.943C38.4744 620.616 38.9133 619.296 39.3987 617.992C30.5527 618.914 21.5967 619.007 12.7809 617.504ZM142.346 609.635C134.603 610.701 126.776 611.314 118.981 610.884L119.867 624.302C119.903 624.851 119.67 625.233 119.326 625.451C120.475 629.81 124.093 633.69 128.578 634.633C135.506 635.527 136.438 626.357 142.322 624.662C141.195 622.136 142.002 618.815 141.892 616.065C141.954 613.902 142.065 611.759 142.346 609.635ZM116.851 621.777C116.701 622.085 116.526 622.372 116.333 622.65C116.538 622.669 116.735 622.73 116.92 622.842C116.899 622.488 116.875 622.133 116.851 621.777ZM47.1242 348.403C40.3482 350.746 32.9539 351.226 25.9734 349.446C27.5047 360.9 29.0427 388.034 38.7978 394.651C40.446 394.414 42.1013 394.297 43.7661 394.463C44.7564 394.562 45.7361 394.721 46.7181 394.873C47.0868 394.924 47.8219 394.963 48.2911 394.93L48.371 394.923C48.2467 394.932 48.1497 394.93 48.2802 394.922L48.4803 394.911L48.5829 394.903C51.9653 394.6 55.0177 389.831 58.3646 392.119C58.8559 391.377 59.5988 390.901 60.1695 390.24C62.7094 385.799 60.0111 380.084 61.7084 375.403C61.0672 374.528 61.2786 373.218 62.2855 372.469C63.8546 371.03 67.1721 372.101 68.0755 370.035C68.0136 370.147 68.0092 370.017 68.0332 369.95L68.039 369.935L67.8798 369.804C60.9472 364.074 54.2443 357.67 49.7013 349.721L49.549 349.453C48.68 350.295 47.2517 349.652 47.1242 348.403ZM205.413 344.516C200.64 347.123 195.5 349.012 190.169 350.104C189.074 360.572 187.815 371.044 186.098 381.426L186.505 381.498C188.886 381.933 191.394 382.519 193.451 380.88C200.223 374.31 202.664 361.095 205.323 352.171L205.428 351.765C205.987 349.576 206.628 346.548 205.413 344.516ZM136.002 128.161C135.291 131.714 139.213 170.398 132.06 163.782C127.218 156.191 121.68 149.088 116.73 141.576C116.048 144.261 118.044 147.452 117.1 149.729C129.698 212.752 138.838 276.746 142.224 340.947C147.792 344.85 152.675 349.583 157.462 354.378C158.953 355.645 160.036 357.715 161.889 358.443C169.408 349.954 178.095 342.595 186.001 334.476C185.927 333.919 185.844 333.365 185.749 332.81C185.355 330.504 188.326 329.335 189.473 330.75C191.871 324.672 192.095 317.528 191.501 311.007C190.335 300.046 186.238 289.572 183.312 279.009C174.876 246.692 169.039 212.791 171.801 179.337C171.842 179.026 172.255 179.021 172.292 179.336C174.584 214.68 178.156 250.122 188.801 284.093L189.054 284.932C193.213 298.663 198.358 313.217 194.797 327.617C195.093 329.556 194.161 331.487 192.753 332.881C192.126 334.395 191.428 335.896 190.599 337.308C190.884 340.588 190.746 343.874 190.456 347.137C195.928 345.969 201.032 343.732 205.912 341.037C206.202 339.392 206.456 337.742 206.653 336.086C210.441 305.362 198.886 275.483 187.326 247.593C176.311 215.09 178.462 179.817 169.256 146.937C163.431 134.115 147.523 133.108 136.002 128.161ZM73.5615 125.779L73.1827 125.912C70.5305 126.844 67.8712 127.925 65.0357 128.005C56.1366 130.961 47.0118 133.231 37.9655 135.698L37.0903 135.937C33.2287 136.997 29.3291 138.208 26.7239 141.446C24.2255 144.55 23.1805 148.549 22.364 152.367C18.5381 185.731 16.3703 219.432 14.4264 252.995C13.4734 280.94 14.0165 309.352 21.1714 336.545C22.1814 340.271 23.4104 344.009 23.8455 347.836C24.3656 347.843 24.8881 347.879 25.4129 347.931C25.4208 347.681 25.8017 347.722 25.7739 347.967C32.7259 349.062 39.9518 348.414 46.4759 345.722C44.8643 296.768 34.39 243.636 58.1152 198.221C58.2126 198.048 58.5071 198.167 58.4406 198.359L57.8557 200.043C55.974 205.471 54.1353 210.907 52.8121 216.504C54.6977 216.225 56.0728 220.633 56.4293 221.714C66.7123 252.88 60.379 286.136 59.0699 318.144C76.7743 330.994 94.652 343.634 113.051 355.477C121.408 350.057 128.893 342.947 137.479 338.031C135.025 271.906 121.509 206.481 114.163 141.173C111.438 144.553 108.663 147.895 105.891 151.237C102.326 155.605 98.8803 160.087 95.3654 164.497C94.6387 165.412 93.0547 165.057 92.5369 164.134C85.6143 151.646 81.2127 137.854 73.5615 125.779ZM52.6933 217.002C42.4799 258.975 50.9658 302.198 50.8053 344.648C51.565 345.319 51.2834 346.591 50.3968 347.052C50.2662 347.637 50.1118 348.218 49.9313 348.799C50.6438 349.474 51.361 350.145 52.0854 350.808C51.5344 341.567 56.1939 333.172 58.8942 324.496C56.9527 322.767 53.3156 321.696 53.8 318.54C54.1753 311.676 54.655 304.817 55.2364 297.97L55.5956 294.136C57.859 269.833 59.7823 245.135 54.4603 221.102L54.4285 220.92C54.2549 219.868 53.9226 217.216 52.6933 217.002ZM205.872 344.267L205.789 344.312L205.974 344.468C205.936 344.405 205.902 344.336 205.872 344.267ZM144.78 329.966C142.412 327.651 146.067 323.978 148.404 326.349C150.769 328.669 147.112 332.341 144.78 329.966ZM143.22 302.428C142.696 301.059 144.151 298.886 145.689 299.796L145.737 299.825L145.758 299.797C147.214 300.655 146.677 302.432 145.822 303.492C144.875 304.466 143.695 303.309 143.22 302.428ZM140.997 270.723C136.879 265.339 145.53 263.13 144.112 269.758C143.81 270.998 141.319 272.806 140.997 270.723ZM134.907 240.725C132.722 238.059 137.42 235.764 138.403 238.947C138.966 241.07 136.312 242.379 134.907 240.725ZM156.773 174.591C158.067 174.792 164.609 173.458 162.926 176.177C165.559 189.305 172.962 205.321 162.392 216.792L162.298 216.884C160.739 218.438 158.246 222.133 155.861 220.61C150.566 216.152 143.744 212.967 139.697 207.261C137.996 202.785 139.445 197.784 138.995 193.102C138.802 187.179 137.814 181.311 137.603 175.397C137.593 175.111 137.905 175.018 138.099 175.139C144.308 174.646 150.55 174.755 156.773 174.591ZM138.311 175.554C141.12 184.68 141.183 194.438 141.108 203.898C141.152 204.873 141.325 205.822 141.835 206.567C145.85 211.293 151.572 214.255 156.338 218.18C158.268 216.922 159.796 215.314 161.164 213.49C169.54 202.549 161.95 188.779 161.96 176.597L160.886 176.599C153.368 176.609 145.778 176.51 138.311 175.554ZM131.99 209.448L132.062 209.449C134.943 209.456 134.283 214.329 131.564 213.66C129.271 213.119 129.622 209.478 131.99 209.448ZM126.339 184.577C124.343 181.182 130.929 179.869 130.236 183.79L130.251 183.629C130.254 183.598 130.257 183.57 130.26 183.546L130.21 183.913C129.97 185.647 126.54 186.89 126.339 184.577ZM121.917 156.463C123.747 155.979 125.098 158.546 123.527 159.695C121.193 161.453 119.183 157.074 121.917 156.463ZM77.0336 116.7L76.8103 116.493C74.4216 114.304 72.6306 113.209 72.101 117.671C71.7321 119.847 72.0487 122.591 74.1386 123.878C84.1448 133.753 87.9372 147.851 94.3846 159.996C100.206 152.959 105.625 145.632 111.256 138.452C103.498 133.734 95.6647 129.053 88.0128 124.13C84.3554 121.703 80.4202 119.494 77.0336 116.7ZM127.405 122.521C124.396 127.424 121.617 132.727 117.78 137.066C117.29 137.556 116.782 137.945 116.257 138.241C117.009 138.025 118.002 138.586 117.908 139.407C123.494 144.965 128.06 151.431 132.423 157.972C133.258 147.151 131.668 136.284 132.283 125.445C130.865 124.144 129.177 123.253 127.405 122.521Z" fill="#00214D"/>
<path fill-rule="evenodd" clip-rule="evenodd" d="M148.094 64.8533C147.999 59.5438 147.895 54.1281 147.104 48.8703C146.331 43.73 144.204 39.0837 140.548 35.351C132.784 27.4223 121.529 25.4857 111.053 23.711L93.1419 20.6765C87.6775 19.751 81.8478 18.2716 76.3269 19.5842C73.6065 20.231 71.2962 21.7336 69.1847 23.5114C67.1494 25.225 64.9611 27.0651 63.582 29.3705C62.2006 31.6793 61.7253 34.3781 61.2763 36.9892C60.7697 39.9331 60.3762 42.9 60.0966 45.874C59.5364 51.8325 59.4599 57.8357 59.8663 63.8064C60.0632 66.7025 60.3764 69.5902 60.7763 72.4651C60.9746 73.8907 61.1988 75.3128 61.452 76.7299C61.5266 77.1477 61.5833 77.6104 61.6598 78.0778C61.0948 79.6814 60.7737 81.3421 60.7996 82.9957C60.8758 87.8667 64.9956 90.9334 69.1488 92.5799C71.5569 93.5346 74.0746 94.1833 76.4407 95.2498C78.9298 96.3716 80.624 98.1902 82.3259 100.265C85.5717 104.221 89.2345 107.777 93.4169 110.744C102.284 117.035 113.516 120.01 124.275 117.752C126.856 117.21 129.461 116.369 131.781 115.101C134.231 113.762 136.073 111.823 137.62 109.53C140.493 105.273 142.553 100.479 144.111 95.6016C145.701 90.6258 146.829 85.641 147.444 80.4526C148.057 75.281 148.187 70.0569 148.094 64.8533Z" fill="#FFFFFE"/>
<path fill-rule="evenodd" clip-rule="evenodd" d="M90.9373 2.18115C98.3494 1.16366 108.58 4.47067 112.271 11.1387C129.894 6.99245 152.121 6.85665 166.647 20.6594C181.803 37.0325 162.766 58.6206 150.142 63.4878C151.062 67.9453 149.629 96.5014 139.489 109.239C131.442 120.032 112.702 125.012 104.031 112.122L103.963 112.015C103.034 110.526 103.834 110.574 104.788 111.682C113.279 119.134 124.824 119.261 133.721 111.397C150.394 97.0219 148.675 61.7761 140.741 41.3859C118.149 38.9096 93.9596 45.7434 78.3554 62.7154L79.4105 69.0549C79.5903 70.135 79.7946 71.2141 79.9504 72.298C80.0501 72.9924 80.0613 73.683 79.5792 74.2452C77.9873 76.101 75.3043 73.3124 73.0969 72.2032C72.4452 72.1117 71.7924 72.0764 71.1521 72.1214C60.5463 73.4847 62.6359 94.0168 74.2924 90.4178C75.2718 89.809 76.1132 89.9948 76.4932 90.8784C79.2716 93.4182 81.1036 97.9479 85.7197 102.311C87.3484 103.947 88.8306 105.317 90.6625 106.629C91.7386 107.715 94.9856 108.823 93.9563 110.681C92.0098 114.91 80.5317 101.627 78.5024 97.9531C72.1441 100.459 65.0978 99.6077 58.5086 98.9952C23.7473 97.1916 28.3878 60.6233 56.8809 37.5359C62.2443 33.5954 68.1619 30.3808 74.3131 27.9072C75.1528 27.5694 74.7859 26.1933 73.9343 26.5358C69.8642 28.1729 65.8964 30.1213 62.1142 32.3765L62.1085 31.0282C62.1029 28.7574 62.1386 26.3932 62.5338 24.3184C62.7314 22.8807 63.0637 21.3451 63.5752 20.1899C64.2077 16.6482 74.1145 4.49152 90.9373 2.18115ZM70.6882 76.8352C71.2249 76.3263 72.2269 76.9331 72.7047 76.9179C73.9266 77.0848 75.0874 77.5998 75.9927 78.2354C76.5905 78.5696 77.0094 78.8834 77.3595 79.1721L77.369 79.1695C77.3664 79.1695 77.363 79.1721 77.3602 79.1728L77.3931 79.195C77.9029 79.5565 79.7688 81.5922 78.5899 81.0447C78.502 80.9307 78.412 80.8212 78.3213 80.7139C78.3116 80.7285 78.298 80.743 78.2819 80.757L78.3481 80.8551C79.3501 82.3592 77.6202 80.7745 77.354 80.3536C77.3414 80.3638 77.3272 80.3707 77.3132 80.378L77.6598 80.799C77.7082 80.8588 77.7463 80.9065 77.7779 80.9468L77.851 81.0173C79.0095 82.1536 79.0457 83.1763 77.6998 81.4962C77.7528 81.5754 77.7953 81.6593 77.8012 81.7337L77.881 81.8352C78.9377 83.1941 78.0782 82.7115 77.5531 82.1311L77.5091 82.0812L77.5181 82.0947C78.0066 82.8458 77.0374 82.3188 76.8661 81.9171L76.8589 81.8989C76.6722 81.7469 76.5574 81.5764 76.518 81.5333L76.5107 81.5261C75.6021 80.597 74.2849 79.8108 73.1661 79.4537C73.0039 79.4229 72.8398 79.3982 72.6741 79.3807C72.0012 79.2309 71.3211 79.1283 70.6338 79.0728C70.5497 79.0628 70.4645 79.0012 70.4008 78.9216C69.3615 78.8866 69.6823 78.4615 70.1135 78.3825L70.1211 78.3812L70.0355 78.374C69.3686 78.3091 68.913 78.0702 69.5874 77.9237L69.6729 77.9067C69.6625 77.8904 69.6532 77.874 69.6442 77.8576C69.0666 77.7944 69.4435 77.2341 69.7641 77.3696C69.6292 76.9295 70.2457 77.1492 70.3227 77.0838C70.3813 77.0189 70.4542 76.9615 70.4963 76.9584C70.682 76.8276 70.592 76.8394 70.6882 76.8352ZM74.2221 69.7093L74.0867 69.7883C73.9773 69.852 73.8647 69.8944 73.7516 69.9193C73.9112 69.9871 74.0689 70.0603 74.225 70.1386C74.2224 70.043 74.2206 69.9475 74.2206 69.8522L74.2221 69.7093Z" fill="#00214D"/>
<path fill-rule="evenodd" clip-rule="evenodd" d="M127.013 76.0343C128.806 77.1222 131.539 79.6589 129.609 82.3559C127.338 84.7339 124.069 82.0074 122.458 80.7742C120.964 79.8185 119.285 82.2765 120.671 83.3924C132.314 91.9947 137.039 76.3187 127.92 74.7552C126.916 74.5829 126.543 75.6977 127.013 76.0343ZM110.81 55.2872L111.256 55.2093L111.484 55.1707C112.82 54.9503 114.403 54.8029 115.326 55.8492C115.843 56.436 116.021 57.5267 115.326 58.0884C114.102 59.0768 112.749 58.6937 111.283 58.7774C110.075 58.8466 108.913 59.0462 107.749 59.3782C105.196 60.1066 103.115 61.4362 100.934 62.8962C100.648 63.0877 100.356 62.7224 100.493 62.4553C101.752 59.9945 104.191 57.973 106.635 56.7408C107.939 56.0831 109.367 55.5375 110.81 55.2872ZM122.622 89.284C126.524 89.5668 134.981 87.7077 138.493 90.4963C151.727 106.989 99.2587 111.229 104.925 92.9828C108.534 87.0829 116.836 89.4542 122.622 89.284ZM121.953 99.2406C120.988 99.1621 119.816 99.9251 119.533 100.514C119.25 101.104 119.359 102.35 119.368 102.566C121.055 102.736 122.757 102.762 124.449 102.651C124.01 101.2 123.995 99.4603 121.953 99.2406ZM129.744 101.675C129.473 99.8739 128.182 99.4472 127.137 99.7177C126.068 99.994 125.44 101.222 125.508 102.315C125.513 102.391 125.469 102.455 125.44 102.515C126.893 102.344 128.333 102.062 129.744 101.675ZM117.776 99.5667C117.167 98.6428 115.713 98.197 114.782 98.3598C113.262 98.6793 113.082 100.608 113.082 101.001C114.483 101.534 115.972 101.888 117.395 102.17C117.681 102.226 117.967 102.277 118.254 102.325L118.272 102.09C118.307 101.589 118.333 100.412 117.776 99.5667ZM134.977 99.4143C133.418 97.007 130.066 98.7305 130.343 101.36C130.641 101.267 130.937 101.169 131.232 101.066C132.457 100.64 133.801 100.134 134.977 99.4143ZM122.702 91.1199C120.605 90.9315 118.884 90.995 117.516 91.2481L117.475 91.7042C117.323 93.2853 117.128 94.8398 117.96 95.4759C118.636 95.9926 120.878 95.9433 122.382 95.5693C122.754 95.4759 123.236 92.1966 122.702 91.1199ZM125.946 90.9315C125.609 92.4897 125.451 94.3818 126.126 94.9438C126.839 95.5371 129.134 95.4567 129.734 95.0614C130.259 94.7155 130.245 93.1243 130.05 91.3377C128.888 91.0644 126.865 90.9315 125.946 90.9315ZM116.589 91.2638L115.902 91.2699L115.513 91.2751C114.53 91.2925 113.469 91.349 112.467 91.5674C110.475 95.8627 117.749 96.6042 116.625 91.4226L116.589 91.2638ZM130.976 91.3673L130.963 91.6107C130.903 92.8172 130.943 94.4061 131.613 94.835C132.598 95.4662 134.449 95.3445 135.451 92.4248C135.12 91.5538 131.601 91.4311 130.976 91.3673ZM111.673 65.7559C112.094 65.7559 112.497 65.8985 112.864 66.1625C113.225 66.4223 113.552 66.8014 113.824 67.2743C114.339 68.1692 114.661 69.4048 114.661 70.771C114.661 72.1372 114.339 73.3728 113.824 74.2677C113.552 74.7406 113.225 75.1197 112.864 75.3795C112.497 75.6435 112.094 75.7861 111.673 75.7861C111.252 75.7861 110.849 75.6435 110.482 75.3795C110.121 75.1197 109.795 74.7406 109.522 74.2677C109.007 73.3728 108.685 72.1372 108.685 70.771C108.685 69.4048 109.007 68.1692 109.522 67.2743C109.795 66.8014 110.121 66.4223 110.482 66.1625C110.849 65.8985 111.252 65.7559 111.673 65.7559ZM138.329 65.7559C138.75 65.7559 139.153 65.8985 139.52 66.1625C139.881 66.4223 140.208 66.8014 140.48 67.2743C140.995 68.1692 141.317 69.4048 141.317 70.771C141.317 72.1372 140.995 73.3728 140.48 74.2677C140.208 74.7406 139.881 75.1197 139.52 75.3795C139.153 75.6435 138.75 75.7861 138.329 75.7861C137.908 75.7861 137.505 75.6435 137.138 75.3795C136.777 75.1197 136.45 74.7406 136.178 74.2677C135.663 73.3728 135.341 72.1372 135.341 70.771C135.341 69.4048 135.663 68.1692 136.178 67.2743C136.45 66.8014 136.777 66.4223 137.138 66.1625C137.505 65.8985 137.908 65.7559 138.329 65.7559ZM134.702 54.1848L135.044 54.2545L135.27 54.3025C138.951 55.0926 143.618 56.6503 145.341 60.2171C145.408 60.7319 145.337 60.8422 145.279 60.9143L145.26 60.9382C145.213 60.9998 145.175 61.0846 144.951 61.1547C144.889 61.1399 144.827 61.1243 144.763 61.1078C143.957 60.8969 143.319 60.6065 142.702 60.3051L142.032 59.976C141.256 59.5959 140.472 59.2296 139.642 58.9593C137.87 58.3824 136.047 57.976 134.196 57.759C133.794 57.7121 133.408 57.5769 133.103 57.3453C132.814 57.1255 132.593 56.8211 132.492 56.4166C132.362 55.893 132.399 55.4966 132.681 55.0243C132.892 54.6695 133.195 54.4237 133.543 54.2825C133.897 54.1386 134.301 54.1046 134.702 54.1848Z" fill="#00214D"/>
<path fill-rule="evenodd" clip-rule="evenodd" d="M139.32 87.0072C137.754 86.7135 136.135 86.796 134.579 86.4542C133.062 86.1205 131.856 85.1282 130.39 84.6662C129.1 84.2595 127.587 84.5349 126.583 85.3232C125.649 84.8926 124.588 84.7994 123.526 84.9416C121.915 85.1573 120.413 85.8375 118.978 86.5732C118.812 86.6585 118.645 86.7398 118.479 86.8221C115.828 86.756 113.111 86.7612 110.509 87.3281C108.206 87.8303 106.028 88.9993 104.655 90.9517C103.117 93.1372 102.84 95.9202 102.603 98.5026C102.452 100.142 104.733 100.474 105.506 99.2874C106.308 98.0568 107.142 96.8234 108.21 95.8038C109.423 94.6455 110.899 94.1895 112.552 94.0838C116.202 93.8506 119.876 94.0461 123.529 93.8847C125.647 93.7911 128.005 92.9784 128.858 91.1411C129.769 92.5658 131.834 93.4129 133.532 93.5413C135.326 93.6774 137.148 93.3519 138.924 93.725C140.621 94.0815 142.638 95.3428 142.261 97.3603C142.039 98.5453 143.54 99.244 144.231 98.1893C147.052 93.8798 144.272 87.9365 139.32 87.0072Z" fill="#00214D"/>
<path fill-rule="evenodd" clip-rule="evenodd" d="M413.7 344.627C413.922 345.725 414.257 346.913 414.606 347.979C412.869 349.645 410.41 351.878 408.646 353.492C410.391 342.749 405.081 332.835 401.831 322.673C403.057 321.107 407.326 319.504 407.188 317.767C406.859 311.333 406.373 304.152 405.672 296.097C403.299 270.942 400.938 244.71 406.539 219.478C406.921 216.736 407.502 213.852 411.193 213.788C422.095 257.028 413.261 300.563 413.501 344.075L413.184 344.358L413.7 344.627ZM430.026 698.904C438.984 698.904 447.218 697.285 455.19 693.999C457.491 693.193 460.349 692.191 460.747 690.568C461.403 686.127 460.949 681.761 460.469 677.14C459.71 669.213 459.785 663.051 457.638 654.515C455.341 646.588 453.383 640.393 455.625 632.196C455.805 629.756 453.89 627.273 452.625 624.991C450.834 621.66 449.925 618.192 448.503 614.776C451.297 614.289 454.199 613.622 456.882 612.795L457.332 614.411C457.431 614.766 457.704 614.946 458.143 614.946C458.414 614.946 459.108 614.816 459.21 614.238C458.789 607.996 458.179 601.786 457.538 595.445C450.888 534.36 440.818 484.005 423.907 433.784C419.845 422.022 415.696 409.778 415.667 396.999C417.976 396.506 420.548 396.222 422.901 396.547C439.671 392.674 436.356 357.324 435.689 346.744C436.871 346.39 438.195 345.89 439.176 345.219L439.573 345.412C456.225 304.229 449.387 236.138 445.578 190.363C443.079 173.909 446.594 144.187 431.954 136.056C420.134 131.885 408.366 129.54 396.014 126.789C393.726 125.481 390.903 124.734 388.351 123.887L389.669 122.04C391.399 119.612 391.169 114.849 388.907 113.176C387.517 113.253 385.563 114.644 384.235 115.298C382.324 111.36 380.555 107.241 379.285 102.51L378.829 102.672C377.493 89.2895 360.079 86.9537 350.261 91.4259C339.543 97.289 345.125 110.553 340.252 120.127L338.486 117.781C335.759 117.731 329.99 121.294 328.6 122.632C327.606 123.093 328.325 126.203 328.18 127.454C313.802 130.698 294.121 131.588 289.551 147.67C281.947 177.911 283.016 208.914 274.389 239.047C265.357 263.473 252.092 293.361 251.981 315.731C251.723 319.924 251.157 343.635 254.639 342.682L256.938 344.967C253.806 349.948 256.292 357.402 257.492 363.299C260.447 375.811 266.222 389.293 278.557 383.297C291.824 456.299 325.169 529.941 313.794 605.237C313.658 605.677 313.934 606.16 314.408 605.968L314.968 605.711C316.414 606.156 318.25 606.312 319.761 606.649C318.475 611.451 317.786 616.19 317.119 621.501C316.309 621.982 316.687 623.254 316.646 624.023C304.575 623.447 297.806 636.042 289.149 642.97C283.434 648.051 276.924 652.889 269.801 657.35C263.915 660.683 258.948 664.499 259.842 670.794C259.757 670.784 257.941 670.504 257.852 670.496C255.114 679.575 264.105 681.453 273.364 682.547C295.991 684.814 315.333 679.804 341.53 670.31C344.743 670.69 347.247 665.93 347.674 662.702C348.097 660.539 346.894 658.339 347.812 656.011C350.971 649.323 352.616 631.616 348.162 623.672C346.599 621.872 344.594 620.21 344.854 617.102C344.927 613.99 345.221 610.879 344.956 607.821C350.309 607.305 355.608 606.156 360.278 604.292C361.105 604.609 362.044 604.219 362.102 603.186C362.998 588.954 364.071 573.4 364.303 558.829C365.379 527.117 358.101 496.173 352.532 465.417C352.145 455.55 350.318 446.018 349.741 436.147C349.122 426.786 349.012 417.621 348.473 408.273L351.687 407.578C378.371 476.132 399.267 544.743 413.893 611.878C413.562 612.16 412.622 612.477 412.662 613.05C412.673 613.355 412.666 613.375 412.875 613.406C416.409 614.114 419.906 614.633 423.408 615.036C422.42 623.414 427.687 633.097 423.026 640.943C421.788 642.834 421.735 643.23 422.493 644.53C415.703 657.125 411.494 667.606 408.767 678.865L407.009 677.384C404.462 679.228 404.409 682.712 404.353 686.393C404.534 688.538 403.484 690.785 405.093 692.59C408.968 697.103 422.473 698.879 430.026 698.904Z" fill="#FFFFFE"/>
<path fill-rule="evenodd" clip-rule="evenodd" d="M380.395 100.493C378.543 101.988 380.475 112.774 381.967 114.974C371.873 121.453 361.672 127.784 351.259 133.718L350.181 134.331L350.214 134.321C349.782 134.514 349.05 134.686 348.621 134.601L348.326 134.504C348.266 134.484 348.231 134.476 348.247 134.489C348.074 134.397 347.905 134.3 347.741 134.189C344.772 131.489 342.609 126.913 340.282 123.355C344.243 119.873 342.269 113.087 342.109 108.451C341.36 108.433 341.272 110.801 341.058 111.488L340.937 112.143C340.652 113.677 340.326 115.24 339.738 116.666C338.025 114.503 329.354 119.613 327.73 121.257C325.96 122.382 326.503 124.382 326.526 126.14C310.071 129.331 289.088 131.576 286.877 152.166C284.275 163.211 282.886 174.453 281.6 185.71L281.39 187.506C279.143 206.876 277.148 226.487 270.802 245.033L268.378 250.797C263.132 263.298 258.015 275.902 254.665 289.056C252.068 294.669 245.153 348.241 255.554 344.108C251.998 349.893 254.66 357.505 255.895 363.69C258.454 373.84 263.563 390.429 277.307 385.538C287.67 440.753 308.198 493.949 313.388 550.124C315.073 568.383 315.038 586.861 312.176 605.006C311.789 606.73 313.442 608.254 315.132 607.498C315.98 607.739 316.878 607.812 317.748 607.976C316.746 611.994 316.159 616.189 315.626 620.295L315.567 620.751L315.564 620.754C315.149 621.213 314.944 621.796 314.963 622.455C308.684 622.477 303.43 626.518 299.247 630.812C291.992 638.38 284.332 645.596 275.651 651.536C269.437 656.571 258.535 659.523 258.185 668.886C255.013 668.351 255.772 675.261 256.335 677.086C256.993 679.132 258.908 680.309 260.744 681.221C287.149 690.042 316.234 681.451 341.338 671.978C345.738 672.559 348.883 666.754 349.353 662.927C349.832 660.815 348.707 658.761 349.363 656.703L349.579 656.137C350.369 654.069 351.116 652.046 351.566 649.853L351.632 649.396C352.702 641.823 353.564 628.999 349.494 622.664C344.747 618.607 347.204 614.719 346.728 609.315C351.415 608.782 356.051 607.725 360.436 606.042C362.166 606.409 363.674 605.013 363.789 603.341L363.958 600.667C364.842 586.753 365.764 572.824 365.994 558.88C367.077 527.242 359.885 496.279 354.222 465.377C353.665 453.464 351.384 441.699 351.063 429.757C350.823 422.561 350.524 415.384 350.162 408.2C375.844 474.17 396.921 541.982 412.049 611.135C410.657 612.077 410.505 614.643 412.577 615.056C415.607 615.658 418.658 616.151 421.721 616.523C421.231 623.949 425.662 633.993 421.557 640.288L421.393 640.539C420.614 641.746 419.852 643.124 420.649 644.525C415.314 654.507 410.689 664.922 407.844 675.915C404.593 674.585 402.741 681.172 402.837 683.552C403.046 686.671 401.359 691.929 404.057 694.062C418.229 703.168 437.468 701.756 452.916 696.713C455.781 695.488 459.064 694.655 461.52 692.698C462.633 691.572 462.557 689.721 462.648 688.259L462.676 687.502C462.821 683.293 462.807 679.004 461.651 674.858C461.96 668.852 461.061 662.766 459.877 656.89C459.118 652.147 456.934 647.642 456.64 642.855C455.09 638.571 457.886 634.567 457.135 630.286C456.521 627.677 454.599 625.423 453.486 622.994L453.408 622.82C452.401 620.611 451.679 618.322 450.806 616.056C452.478 615.738 454.128 615.347 455.755 614.878C456.533 617.689 461.037 616.895 460.904 614.029C457.205 567.819 449.854 521.865 438.475 476.908C433.166 450.318 419.457 425.527 417.39 398.393C419.035 398.086 420.909 398.007 422.521 398.192L422.713 398.215C423.743 398.343 424.732 398.523 425.836 398.004C440.004 389.283 438.548 362.558 437.473 347.931C438.113 347.718 438.724 347.455 439.28 347.126C439.773 347.491 440.52 347.512 440.807 346.839C441.533 345.139 442.465 343.48 443.096 341.753C459.512 285.489 449.029 226.199 445.724 168.846C444.436 157.063 444.426 141.066 432.683 134.572C428.742 132.712 424.295 131.913 420.094 130.84C410.456 127.975 400.388 126.691 391.053 123.025C393.225 120.018 392.708 115.631 390.898 112.606C389.463 110.429 386.708 112.095 385.005 113.021C383.039 109.017 381.69 104.748 380.395 100.493ZM407.249 678.485L407.162 678.887C406.702 681.043 406.305 683.307 406.536 685.5C400.43 691.432 428.565 692.183 431.67 692.17C438.774 692.097 459.662 689.737 460.695 681.201L460.683 681.405C460.545 684.12 461.007 689.191 459.525 691.198C448.324 697.005 435.292 699.303 422.756 697.872L422.305 697.812C417.308 697.128 407.816 695.113 405.351 690.96C405.896 687.095 404.557 681.556 407.249 678.485ZM427.51 640.136C434.367 632.697 445.63 638.135 452.861 642.283C453.134 645.541 455.425 646.739 455.518 650.157C457.058 660.595 460.608 672.395 456.086 682.473C442.603 689.667 426.57 689.18 411.984 686.083C411.602 685.588 411.12 685.439 410.431 685.251C409.998 682.193 410.874 679.119 411.454 676.15C412.912 669.91 414.799 663.784 416.477 657.601C419.484 655.666 420.583 651.6 422.152 648.533C422.577 647.673 423.013 646.813 423.469 645.959C425.917 645.16 426.558 642.247 427.51 640.136ZM347.13 660.656C347.867 668.159 340.525 671.15 334.589 672.95C327.908 675.318 321.063 677.283 314.18 678.982C300.08 682.603 285.379 684.189 270.925 681.919L270.674 681.874C266.504 681.143 259.033 680.263 258.085 675.451L258.075 675.34C258.011 674.552 257.887 671.583 258.185 670.824C258.294 670.822 258.401 670.798 258.504 670.748C259.712 674.6 264.114 676.942 268.357 677.546C270.358 679.549 274.045 678.806 276.712 678.92C294.32 678.746 311.248 673.313 327.932 668.263C333.241 666.424 343.824 665.106 347.13 660.656ZM345.617 622.038C348.673 620.965 349.254 629.497 349.644 631.58C350.629 640.39 350.606 654.127 343.451 660.375C335.985 663.562 327.927 665.024 320.226 667.532L318.403 668.066C303.806 672.325 288.806 676.309 273.485 675.681C272.329 673.376 264.993 675.292 262.194 671.185C258.442 664.664 267.918 660.463 272.403 657.685C281.014 652.175 289.058 645.768 296.312 638.572C299.722 635.19 302.843 631.317 306.848 628.598L307.057 628.459C310.488 626.191 314.893 624.785 318.923 626.274C322.847 627.722 324.288 632.189 327.58 634.498C334.914 639.236 342.426 631.747 344.809 624.969L344.88 624.764C344.965 624.553 344.732 624.425 344.556 624.482C344.573 624.415 344.585 624.347 344.599 624.28C345.524 624.039 345.612 622.891 345.617 622.038ZM449.94 616.215C448.982 621.613 451.682 626.456 453.696 631.232C454.238 634.397 452.245 637.432 452.706 640.653C446.112 635.493 436.132 630.918 428.176 635.631C428.133 631.079 426.562 626.663 425.196 622.361L424.642 620.653C424.209 619.327 423.77 618.007 423.284 616.703C432.143 617.625 441.112 617.717 449.94 616.215ZM320.188 608.346C327.942 609.412 335.78 610.025 343.586 609.595L342.699 623.012C342.663 623.562 342.896 623.944 343.241 624.162C342.09 628.521 338.467 632.401 333.975 633.344C327.037 634.238 326.104 625.067 320.212 623.372C321.34 620.847 320.532 617.526 320.642 614.776C320.58 612.612 320.469 610.469 320.188 608.346ZM345.719 620.488C345.869 620.796 346.045 621.083 346.238 621.36C346.033 621.379 345.836 621.441 345.65 621.552C345.672 621.199 345.696 620.843 345.719 620.488ZM415.547 347.114C422.333 349.457 429.738 349.937 436.729 348.156C435.195 359.611 433.655 386.745 423.886 393.361C422.235 393.124 420.577 393.008 418.91 393.174C417.918 393.273 416.937 393.432 415.954 393.584C415.585 393.635 414.848 393.674 414.379 393.641L414.298 393.634C414.423 393.643 414.52 393.641 414.389 393.632L414.189 393.622L414.086 393.614C410.699 393.311 407.642 388.541 404.29 390.83C403.798 390.088 403.054 389.611 402.483 388.95C399.939 384.51 402.642 378.795 400.942 374.114C401.584 373.239 401.372 371.929 400.364 371.18C398.792 369.74 395.47 370.812 394.565 368.745C394.627 368.858 394.632 368.728 394.608 368.66L394.602 368.646L394.762 368.515C401.704 362.784 408.417 356.381 412.966 348.432L413.119 348.163C413.989 349.005 415.419 348.362 415.547 347.114ZM257.029 343.226C261.809 345.834 266.956 347.723 272.296 348.815C273.392 359.282 274.653 369.755 276.372 380.136L275.965 380.209C273.58 380.644 271.069 381.23 269.009 379.591C262.227 373.021 259.783 359.806 257.119 350.882L257.014 350.476C256.455 348.287 255.812 345.259 257.029 343.226ZM326.54 126.872C327.253 130.425 323.325 169.109 330.489 162.492C335.337 154.902 340.883 147.799 345.841 140.287C346.523 142.972 344.525 146.163 345.47 148.44C332.854 211.462 323.701 275.456 320.309 339.657C314.733 343.561 309.844 348.294 305.05 353.089C303.556 354.355 302.472 356.425 300.617 357.153C293.086 348.665 284.387 341.306 276.469 333.187C276.543 332.63 276.626 332.075 276.722 331.521C277.116 329.214 274.141 328.046 272.992 329.461C270.591 323.383 270.366 316.239 270.961 309.718C272.129 298.756 276.232 288.283 279.163 277.72C287.61 245.403 293.456 211.502 290.69 178.047C290.649 177.737 290.235 177.732 290.199 178.047C287.903 213.39 284.326 248.832 273.665 282.803L273.412 283.643C269.247 297.374 264.095 311.928 267.66 326.328C267.364 328.266 268.298 330.198 269.708 331.592C270.336 333.106 271.035 334.606 271.865 336.019C271.579 339.298 271.717 342.585 272.008 345.848C266.528 344.679 261.417 342.443 256.53 339.747C256.239 338.102 255.985 336.453 255.788 334.796C251.994 304.073 263.565 274.194 275.142 246.304C286.174 213.801 284.02 178.527 293.239 145.648C299.072 132.826 315.003 131.818 326.54 126.872ZM389.072 124.49L389.451 124.622C392.107 125.555 394.77 126.636 397.61 126.716C406.522 129.672 415.66 131.942 424.719 134.409L425.596 134.648C429.463 135.708 433.368 136.919 435.977 140.157C438.479 143.261 439.525 147.259 440.343 151.078C444.175 184.441 446.346 218.142 448.292 251.705C449.247 279.651 448.703 308.063 441.538 335.256C440.526 338.982 439.295 342.72 438.859 346.547C438.339 346.554 437.815 346.59 437.29 346.642C437.282 346.392 436.9 346.433 436.928 346.677C429.966 347.773 422.73 347.125 416.196 344.433C417.81 295.479 428.3 242.346 404.54 196.932C404.443 196.759 404.148 196.878 404.214 197.069L404.8 198.754C406.685 204.181 408.526 209.617 409.851 215.215C407.963 214.935 406.586 219.344 406.229 220.424C395.931 251.591 402.273 284.847 403.584 316.855C385.854 329.705 367.951 342.345 349.525 354.188C341.156 348.767 333.66 341.658 325.061 336.742C327.519 270.617 341.054 205.192 348.412 139.884C351.141 143.264 353.92 146.606 356.695 149.947C360.265 154.315 363.716 158.797 367.236 163.208C367.964 164.123 369.55 163.767 370.069 162.845C377.001 150.357 381.409 136.565 389.072 124.49ZM409.97 215.713C420.198 257.686 411.7 300.909 411.861 343.359C411.1 344.03 411.382 345.302 412.27 345.763C412.401 346.348 412.555 346.929 412.736 347.509C412.022 348.185 411.304 348.855 410.579 349.519C411.131 340.278 406.464 331.883 403.76 323.206C405.704 321.478 409.347 320.407 408.862 317.25C408.486 310.387 408.005 303.527 407.423 296.68L407.063 292.847C404.797 268.544 402.871 243.846 408.2 219.813L408.232 219.631C408.406 218.579 408.739 215.927 409.97 215.713ZM256.57 342.978L256.653 343.023L256.468 343.179C256.506 343.115 256.539 343.047 256.57 342.978ZM317.75 328.677C320.121 326.361 316.461 322.689 314.121 325.06C311.752 327.38 315.415 331.051 317.75 328.677ZM319.313 301.139C319.837 299.769 318.38 297.597 316.839 298.507L316.792 298.536L316.77 298.508C315.312 299.366 315.85 301.143 316.706 302.203C317.655 303.177 318.836 302.02 319.313 301.139ZM321.539 269.433C325.663 264.05 316.999 261.841 318.419 268.469C318.721 269.708 321.216 271.517 321.539 269.433ZM327.637 239.435C329.826 236.769 325.12 234.475 324.136 237.658C323.572 239.781 326.23 241.09 327.637 239.435ZM305.74 173.302C304.444 173.503 297.892 172.169 299.577 174.888C296.941 188.015 289.527 204.031 300.112 215.502L300.207 215.595C301.768 217.149 304.265 220.843 306.653 219.321C311.956 214.863 318.788 211.677 322.84 205.972C324.544 201.496 323.093 196.495 323.544 191.813C323.736 185.89 324.726 180.021 324.938 174.108C324.947 173.821 324.635 173.729 324.44 173.85C318.222 173.357 311.971 173.466 305.74 173.302ZM324.229 174.264C321.416 183.391 321.352 193.149 321.427 202.608C321.383 203.584 321.21 204.533 320.7 205.278C316.678 210.004 310.948 212.965 306.175 216.891C304.242 215.632 302.712 214.024 301.342 212.2C292.954 201.26 300.555 187.49 300.545 175.308L301.62 175.31C309.15 175.32 316.751 175.221 324.229 174.264ZM330.559 208.159L330.486 208.159C327.601 208.167 328.263 213.039 330.986 212.371C333.281 211.83 332.93 208.189 330.559 208.159ZM336.218 183.288C338.217 179.893 331.621 178.58 332.315 182.501L332.3 182.34C332.297 182.309 332.294 182.281 332.291 182.256L332.341 182.624C332.581 184.358 336.016 185.6 336.218 183.288ZM340.646 155.173C338.813 154.69 337.461 157.256 339.034 158.406C341.371 160.164 343.384 155.785 340.646 155.173ZM385.594 115.41L385.818 115.204C388.21 113.015 390.004 111.92 390.534 116.382C390.904 118.558 390.587 121.302 388.494 122.589C378.473 132.464 374.675 146.562 368.218 158.707C362.388 151.669 356.962 144.343 351.323 137.163C359.091 132.445 366.936 127.763 374.599 122.84C378.262 120.414 382.203 118.204 385.594 115.41ZM335.15 121.231C338.164 126.134 340.946 131.437 344.789 135.776C345.279 136.267 345.788 136.656 346.314 136.952C345.562 136.736 344.567 137.296 344.661 138.118C339.067 143.676 334.494 150.141 330.125 156.683C329.289 145.861 330.881 134.994 330.265 124.156C331.685 122.855 333.376 121.964 335.15 121.231Z" fill="#1B2D45"/>
<path fill-rule="evenodd" clip-rule="evenodd" d="M311.619 30.5375C311.699 27.7033 315.836 26.5265 317.031 29.3335C317.105 29.4086 317.186 29.4809 317.261 29.5456C316.887 29.2259 317.67 29.7549 317.797 29.8203C317.906 29.8762 318.017 29.9267 318.128 29.9788C318.897 22.7989 321.506 15.0586 328.249 11.4546C337.654 6.9097 348.521 6.02257 358.839 6.47408C364.066 6.78314 370.102 7.61599 374.746 4.98091C376.193 4.15991 377.353 2.8675 378.988 2.36006C384.149 0.968572 386.491 6.25058 385.788 10.5943C387.989 10.6116 390.173 11.8262 391.123 13.8261C391.681 15.0098 391.671 16.287 392.153 17.4749C393.629 20.4873 395.741 22.6526 394.547 26.3049C396.647 28.6867 395.45 32.2923 393.755 34.5726C392.918 35.7586 391.921 36.8972 391.308 38.2247C390.713 39.4957 391.611 41.0031 392.111 42.2081C395.807 50.9417 395.596 60.5598 393.607 69.6695C397.598 71.3952 398.796 76.7895 396.193 80.1861C395.298 81.3868 394.206 81.8324 392.967 82.5711C391.399 83.431 392.679 86.8752 392.177 88.5386C391.495 92.5993 387.785 95.1 384.116 92.463C381.789 92.112 379.911 98.8618 378.22 100.556C377.179 101.921 376.023 103.147 374.765 104.278C371.02 113.883 351.825 118.754 342.335 118.198C332.397 117.161 325.693 108.75 320.11 101.286C317.244 97.3084 315.379 92.8569 314.701 88.0017C314.02 83.1222 314.318 78.2338 314.779 73.3484C315.746 62.9683 317.272 48.0139 318.257 37.5217C314.696 37.2294 311.511 34.2083 311.619 30.5375Z" fill="#FFFFFE"/>
<path fill-rule="evenodd" clip-rule="evenodd" d="M389.245 24.2967C389.248 24.3114 389.243 24.3226 389.24 24.3382C389.239 24.3337 389.239 24.3313 389.237 24.3259C389.24 24.314 389.242 24.3062 389.245 24.2967Z" fill="#00214D"/>
<path fill-rule="evenodd" clip-rule="evenodd" d="M389.246 24.4476C389.259 24.4339 389.278 24.4237 389.296 24.41C389.297 24.4104 389.297 24.4109 389.297 24.4114C389.28 24.4228 389.263 24.4358 389.246 24.4476Z" fill="#00214D"/>
<path fill-rule="evenodd" clip-rule="evenodd" d="M312.186 31.8787C311.016 30.9103 309.173 31.8019 309.57 33.3963C310.001 35.1326 311.868 36.3191 313.41 37.0325C314.997 37.7665 316.542 37.908 318.274 37.8279L318.295 37.8232C317.814 39.7437 317.542 41.74 317.174 43.6721C316.707 46.1233 316.248 48.5756 315.796 51.0291C315.359 53.4006 314.806 55.7752 314.47 58.1586C314.131 60.5645 313.806 62.972 313.473 65.3786C312.917 69.3981 312.469 73.436 311.996 77.467L311.77 79.375C311.297 83.4137 310.915 87.4571 311.813 91.4761C312.654 95.2426 314.549 98.7561 316.747 101.9C318.9 104.979 321.305 107.939 323.944 110.617C329.036 115.782 335.315 119.918 342.677 120.686C345.847 121.016 349.233 120.648 352.213 119.5L352.411 119.423C355.428 118.236 359.123 116.204 359.908 112.869C360.39 110.823 358.274 109.226 356.419 110.196C355.56 110.646 354.914 111.16 354.208 111.805L354.083 111.92C353.507 112.453 353.285 112.617 352.62 113.035C351.255 113.89 350.232 114.295 348.683 114.684C345.825 115.4 342.742 115.287 339.841 114.439C333.683 112.641 328.905 107.948 324.812 103.243C322.59 100.688 320.48 98.0073 318.854 95.0293C317.147 91.9048 316.359 88.6244 316.406 85.0692C316.46 81.0578 317.016 77.0308 317.381 73.0383C317.753 68.9682 318.097 64.8994 318.4 60.8236C318.684 57.0013 318.711 53.1618 318.81 49.3276L318.83 48.6088C318.888 46.5733 318.929 44.5372 318.975 42.5013C319.021 40.4713 319.182 38.4154 318.972 36.394C318.957 36.2468 318.758 36.2096 318.71 36.3584C318.586 36.7372 318.478 37.1218 318.376 37.5086C318.36 37.4968 318.342 37.4861 318.321 37.4788C316.964 37.0142 315.715 36.0868 314.697 35.0866C313.726 34.1322 313.218 32.7341 312.186 31.8787ZM386.408 3.4381C385.556 -0.049742 381.721 -0.828794 378.885 0.850896C377.521 1.65863 376.429 2.82353 375.155 3.74929C373.888 4.66984 372.488 5.40907 371.011 5.93121C368.077 6.96836 364.981 7.34545 361.879 7.35895C354.33 7.3919 346.936 5.27777 339.376 5.51359C333.526 5.69609 327.317 7.41892 323.074 11.633C320.788 13.903 319.316 16.8216 318.525 19.92C318.156 21.3681 317.881 22.8513 317.664 24.3311L317.611 24.701C317.489 25.5658 317.294 26.4814 317.276 27.3555C317.26 28.1405 317.459 28.9619 317.567 29.7389C317.795 31.3766 320.34 31.1901 320.706 29.7389C321.539 26.4347 321.19 23.0246 322.208 19.7318C323.111 16.8119 324.86 14.2588 327.394 12.5127C338.087 5.14647 351.799 11.3151 363.581 10.742C366.46 10.602 369.382 10.1585 372.098 9.17042C373.499 8.66085 374.878 8.03941 376.147 7.25775C377.311 6.54205 378.319 5.64284 379.396 4.81534L379.871 4.45549C380.609 3.90193 381.866 3.03648 382.611 3.76873C382.935 4.08746 382.955 4.80815 382.949 5.35848L382.945 5.60721C382.911 7.94366 382.434 10.2758 383.311 12.5331C383.711 13.5627 384.824 14.2119 385.881 13.6288L385.936 13.5975C388.174 12.2709 391.114 14.9367 389.395 17.1429L389.341 17.2096C388.374 18.3809 388.89 20.4436 390.621 20.4385L390.683 20.4374C393.767 20.3414 395.136 24.1826 392.477 25.861L392.396 25.9112C390.237 27.1984 392.13 30.293 394.343 29.2305C394.155 29.3205 394.481 29.3194 394.667 29.5687C394.847 29.8081 394.86 30.0152 394.817 30.3176C394.688 31.2339 393.88 32.0061 393.225 32.5858C391.737 33.9029 389.892 34.8123 387.992 35.366C380.379 37.5839 372.568 34.8708 365.151 33.2324C357.418 31.5243 348.683 30.8362 341.939 35.6833C341.859 35.7407 341.929 35.8689 342.018 35.8177C346.858 33.0167 352.786 33.2653 358.076 34.4137C365.014 35.9196 371.891 38.7227 378.996 39.4613C377.001 42.9704 376.167 47.115 376.699 51.1288C377.066 53.8918 378.17 56.2884 379.473 58.7171L379.722 59.18C380.884 61.36 381.784 63.4195 381.798 65.945C381.812 68.4542 385.555 68.9832 386.19 66.5375C387.63 60.9832 382.382 56.6082 380.241 52.028C378.411 48.1126 378.355 43.5475 379.836 39.5385C381.507 39.6724 383.191 39.6864 384.892 39.5352C386.353 39.4051 387.856 39.1427 389.321 38.7275L389.907 41.1828C390.684 44.4534 391.403 47.7218 391.621 51.1188C391.782 53.615 391.773 56.1235 391.529 58.6136C391.318 60.7642 390.872 62.8383 390.418 64.9379C390.029 65.4494 389.83 66.2322 389.94 66.8558C387.414 67.5806 385.427 69.5667 384.702 72.1973C384.657 72.3575 384.882 72.4476 384.966 72.3087C386.689 69.4613 391.123 68.4134 393.929 70.2946C396.607 72.0907 397.664 75.7169 396.148 78.5876C395.35 80.097 394.167 81.1577 392.643 81.8881L392.336 82.0316C391.537 82.4084 390.803 82.8191 390.289 83.5759C389.623 84.5576 389.6 85.5954 389.663 86.7171L389.691 87.1718C389.733 87.9237 389.742 88.6977 389.517 89.4211L389.466 89.5818C389.407 89.7623 389.345 89.9213 389.237 90.0937C389.204 90.1449 388.901 90.4416 388.802 90.549L388.677 90.5864L388.538 90.5921C388.383 90.5945 388.18 90.5277 388.247 90.574L388.228 90.5637C388.17 90.5273 388.116 90.4888 388.07 90.4545L387.984 90.3874C387.782 90.0965 387.529 89.8562 387.219 89.673L386.922 89.5415C386.152 88.7309 384.832 89.1568 384.28 89.9643C383.882 90.545 383.668 91.1354 383.651 91.7177C383.589 91.6184 383.451 91.5641 383.363 91.6753L382.839 92.3402C380.836 94.8911 378.867 97.4579 376.591 99.7831C375.337 101.064 373.988 102.268 372.578 103.377C371.374 104.324 369.09 105.235 369.055 106.96C369.044 107.52 369.443 107.916 369.931 108.106C371.519 108.725 373.482 106.622 374.629 105.598L374.723 105.515C376.127 104.29 377.409 102.945 378.591 101.506C380.888 98.7114 382.808 95.4949 383.655 91.9566C383.695 92.574 383.96 93.1791 384.478 93.7501C385.167 94.5099 386.11 95.0427 387.117 95.2622C389.399 95.7592 391.627 94.9408 392.985 93.0459C394.133 91.4439 394.471 89.3286 394.322 87.3932L394.304 87.161C394.283 86.8506 394.257 86.2811 394.176 86.0387L394.895 85.6455C395.776 85.1784 396.592 84.5659 397.325 83.8928C400.27 81.1871 401.748 76.7899 400.401 72.942C399.559 70.5349 397.789 68.4405 395.523 67.3519C395.902 66.4796 396.029 65.4437 396.172 64.5271L396.196 64.3755C396.438 62.8719 396.641 61.3494 396.718 59.8278C396.863 56.986 396.687 54.1177 396.239 51.3089C395.511 46.7467 394.005 41.9084 391.243 38.0811C393.35 37.2473 395.289 36.0402 396.786 34.3641C398.35 32.6126 399.348 30.105 398.138 27.8807C397.83 27.3138 397.428 26.8371 396.966 26.4586C397.767 24.9522 398.026 23.1718 397.532 21.4701C396.942 19.4356 395.339 17.8488 393.403 17.1079C393.873 15.1803 393.489 13.1069 392.052 11.5005C390.627 9.90681 388.414 9.32638 386.365 9.69066C386.254 7.64052 386.902 5.46003 386.408 3.4381ZM392.153 75.418C390.275 74.5022 388.049 74.6477 386.173 75.5156L386.046 75.5758C383.998 76.5654 381.286 78.8777 381.937 81.3368C382.318 82.775 383.921 83.2661 385.165 82.6454C386.203 82.1266 386.44 81.1991 386.961 80.2675C387.33 79.6086 387.785 79.0935 388.32 78.5638C389.447 77.4477 390.714 76.6187 392.153 75.9553C392.36 75.8595 392.353 75.5159 392.153 75.418ZM344.835 25.71C345.011 25.6299 344.883 25.3552 344.706 25.4055C339.987 26.7484 335.587 29.7627 332.958 33.9466C332.798 34.2019 332.773 34.6221 332.958 34.8748L333.043 34.9894C333.164 35.1463 333.283 35.2621 333.51 35.2971C333.936 35.363 334.306 35.2523 334.551 34.8748C337.141 30.8868 340.46 27.7043 344.835 25.71ZM313.244 26.4997C312.845 25.825 311.785 25.9608 311.574 26.7173L311.543 26.7831C311.429 27.0411 311.481 27.0938 311.693 26.9479C311.167 27.3797 310.929 28.023 311.09 28.7146C311.959 32.4499 316.204 35.1172 319.905 34.75C320.228 34.718 320.272 34.3225 319.98 34.2044C318.556 33.6299 317.292 32.6968 316.276 31.5518C315.288 30.4388 314.872 29.1654 314.341 27.8213C314.142 27.3167 313.832 26.9534 313.395 26.755C313.337 26.6753 313.287 26.5905 313.244 26.4997ZM334.292 24.0993L334.266 24.1009C332.365 24.3457 330.72 25.281 329.384 26.6514C328.098 27.9711 326.475 30.1487 326.614 32.0853C326.706 33.3692 328.538 34.1032 329.221 32.7892C329.629 32.0052 329.722 31.1458 330.007 30.3167C330.269 29.5569 330.631 28.8354 331.065 28.1588C331.957 26.7647 333.184 25.5837 334.44 24.5181C334.587 24.3934 334.484 24.1 334.292 24.0993ZM383.068 23.5304C383.49 23.1303 383.051 22.4482 382.515 22.5833C379.686 23.2969 376.885 24.1648 373.944 24.2511C372.475 24.294 371.015 24.1786 369.56 23.9892L368.823 23.8917C367.688 23.7441 366.534 23.6283 365.413 23.8605C364.665 24.0153 364.519 24.9752 364.985 25.476C367.185 27.8411 371.429 27.615 374.347 27.2163C377.516 26.7831 380.713 25.7663 383.068 23.5304ZM331.99 16.1583C332.183 15.8907 331.857 15.4684 331.549 15.5871C328.738 16.6698 325.792 19.4886 325.018 22.4377C324.813 23.2167 325.799 23.805 326.378 23.2267C327.457 22.149 328.218 20.876 329.13 19.6647C330.039 18.4571 331.102 17.3846 331.99 16.1583ZM378.047 17.4754C378.272 17.2509 378.045 16.8039 377.721 16.9182C375.891 17.564 374.047 18.1229 372.125 18.4161C370.155 18.7161 368.168 18.4881 366.188 18.6097C365.387 18.6588 364.842 19.9002 365.732 20.2866C369.688 22.0028 375.061 20.4466 378.047 17.4754ZM372.994 13.626C373.308 13.3942 373.129 12.758 372.701 12.9356C370.958 13.6587 369.196 13.8364 367.326 13.762C366.635 13.7343 366.489 14.8162 367.163 14.9622C369.23 15.4104 371.304 14.8708 372.994 13.626Z" fill="#1B2D45"/>
<path fill-rule="evenodd" clip-rule="evenodd" d="M334.303 97.3266C335.823 97.339 337.532 96.7705 338.674 96.3254L338.972 96.2078C339.962 95.813 340.977 95.3598 341.735 94.5993C341.977 94.3521 342.235 94.0725 342.366 93.7783C342.443 93.6061 342.475 93.4277 342.401 93.2505C342.127 93.2236 341.867 93.1887 341.621 93.1439C341.504 93.1226 341.392 93.1005 341.306 93.0999C340.989 93.0979 340.675 93.1381 340.362 93.1776C340.317 93.1833 340.271 93.189 340.226 93.1946C339.982 93.2247 339.739 93.2572 339.497 93.2896C338.792 93.3839 338.091 93.4775 337.376 93.5116C336.86 93.5363 336.319 93.5073 335.772 93.4777C334.356 93.4009 332.892 93.2961 331.8 94.2847C331.514 94.5436 331.395 94.8698 331.395 95.202C331.395 95.6058 331.566 96.0167 331.826 96.3392C332.415 97.0692 333.321 97.3186 334.303 97.3266ZM326.014 84.5945C326.675 85.5832 327.777 86.219 329.286 86.1499C332.287 86.0132 335.868 84.885 338.381 83.2536C339.036 82.8289 339.46 82.1499 339.536 81.4224L339.672 80.1281L340.403 81.2059C340.48 81.3182 340.557 81.4302 340.633 81.5422C340.845 81.8508 341.057 82.1593 341.257 82.4755C342.023 83.6894 342.726 84.9155 343.365 86.2014C343.816 87.112 344.147 88.1304 344.478 89.1579C345.037 90.8927 345.578 92.5988 346.772 93.8181C346.953 94.0025 347.231 94.0685 347.485 94.0359C347.709 94.0071 347.929 93.8977 348.036 93.6796C349.464 90.7862 347.544 87.2995 345.986 84.8756L345.821 84.6225C344.377 82.432 342.018 79.5332 339.316 79.1391L339.007 79.6307L338.557 79.3318C337.821 78.843 336.85 78.8657 336 79.2481L335.15 79.6305C333.568 80.3381 332.007 80.991 330.295 81.3486C330.17 81.3747 330.046 81.399 329.921 81.4216C329.804 81.4429 329.686 81.4629 329.567 81.4814C329.593 81.3651 329.62 81.2493 329.647 81.1339C329.676 81.0117 329.706 80.8893 329.737 80.7672C329.769 80.6412 329.804 80.5159 329.838 80.3911C329.975 79.8934 330.13 79.4003 330.314 78.9174C331.005 77.1021 332.109 75.4043 333.183 73.785L333.309 73.5945C333.463 73.3624 333.632 73.1203 333.806 72.8699C334.644 71.6682 335.572 70.3641 335.638 69.055C334.526 69.1247 333.596 69.8129 332.777 70.412C331.654 71.2338 330.613 72.1734 329.668 73.1944C327.836 75.1749 326.191 77.7069 325.47 80.3243C325.057 81.8231 325.239 83.4358 326.014 84.5945ZM355.33 69.6628L355.33 69.6094C355.327 68.098 354.444 64.6472 352.26 64.6472C350.896 64.6472 350.068 66.9957 349.925 69.4167L349.92 69.5154C349.857 71.0205 350.271 74.3105 352.26 74.3105C354.271 74.3105 355.309 71.1945 355.33 69.6628ZM323.186 69.1887L323.185 69.1353C323.189 67.624 324.072 64.1732 326.255 64.1732C327.585 64.1732 328.406 66.4057 328.579 68.7612L328.591 68.9426C328.677 70.397 328.289 73.8365 326.255 73.8365C324.245 73.8365 323.206 70.7204 323.186 69.1887ZM347.977 59.4344C348.266 59.4682 348.554 59.5125 348.842 59.558C349.682 59.6913 350.517 59.8513 351.346 60.0378C352.921 60.3921 354.483 60.8395 356.016 61.3451C357.45 61.8185 358.862 62.3533 360.273 62.8882C360.349 62.9167 360.424 62.9452 360.499 62.9738C360.998 63.1626 361.494 63.3742 361.993 63.5865C362.751 63.9096 363.513 64.2348 364.29 64.4799C362.242 61.6581 359.086 59.5672 356.05 58.071C354.317 57.2174 352.479 56.529 350.631 55.9649L349.601 55.6566C348.085 55.2109 346.427 54.7991 345.003 55.6879C344.44 56.0394 344.08 56.5859 343.967 57.1766C343.856 57.7559 343.983 58.3771 344.384 58.8955C344.734 59.3471 345.17 59.6043 345.634 59.6924C346.146 59.7897 346.688 59.6828 347.182 59.42C347.578 59.3906 347.694 59.4012 347.812 59.4142L347.977 59.4344ZM325.169 59.7215C326.184 59.5017 327.189 59.4134 328.23 59.4451C328.701 59.4591 329.156 59.5316 329.61 59.6046C330.316 59.7178 331.019 59.8348 331.779 59.6974C332.175 59.6256 332.513 59.3945 332.774 59.0928C333.079 58.7401 333.28 58.2892 333.345 57.8606C333.412 57.4178 333.346 57.0306 333.181 56.6886C332.987 56.2847 332.66 55.9442 332.264 55.646C331.068 54.7433 329.015 54.9604 327.603 55.1429C326.207 55.3237 324.819 55.7549 323.586 56.4398C322.369 57.1158 321.311 58.0264 320.485 59.1395C319.789 60.0777 319.462 61.1575 319.123 62.257C320.715 60.9259 323.152 60.1579 325.169 59.7215Z" fill="#1B2D45"/>
<path fill-rule="evenodd" clip-rule="evenodd" d="M323.218 85.7179C324.787 85.4243 326.408 85.5068 327.966 85.165C329.486 84.8313 330.693 83.8389 332.161 83.377C333.453 82.9703 334.968 83.2457 335.974 84.034C336.909 83.6033 337.971 83.5102 339.035 83.6524C340.648 83.8681 342.153 84.5483 343.59 85.284C343.756 85.3693 343.923 85.4506 344.089 85.5328C346.744 85.4667 349.465 85.4719 352.07 86.0388C354.377 86.5411 356.558 87.71 357.933 89.6625C359.473 91.848 359.751 94.6309 359.988 97.2134C360.139 98.8526 357.855 99.1851 357.081 97.9981C356.278 96.7676 355.442 95.5342 354.373 94.5146C353.158 93.3563 351.68 92.9003 350.024 92.7946C346.369 92.5614 342.69 92.7569 339.031 92.5955C336.911 92.5019 334.549 91.6892 333.695 89.8519C332.782 91.2765 330.715 92.1236 329.015 92.2521C327.218 92.3881 325.394 92.0627 323.615 92.4357C321.915 92.7922 319.895 94.0536 320.273 96.071C320.495 97.2561 318.992 97.9548 318.3 96.9001C315.475 92.5905 318.258 86.6472 323.218 85.7179Z" fill="#1B2D45"/>
</svg>
